<?xml version="1.0" encoding="iso-8859-1"?>
<!-- Generator: Adobe Illustrator 19.0.0, SVG Export Plug-In . SVG Version: 6.00 Build 0)  -->
<svg version="1.1" id="Capa_1" xmlns="http://www.w3.org/2000/svg" xmlns:xlink="http://www.w3.org/1999/xlink" x="0px" y="0px"
	 viewBox="0 0 490.667 490.667" style="enable-background:new 0 0 490.667 490.667;" xml:space="preserve">
<g>
	<path style="fill:#455A64;" d="M245.547,0h-0.213c-5.891,0-10.667,4.776-10.667,10.667c0.001,5.891,4.778,10.666,10.669,10.665
		c5.891-0.001,10.666-4.778,10.665-10.669C255.999,4.855,251.353,0.116,245.547,0z"/>
	<path style="fill:#455A64;" d="M245.547,42.667h-0.213c-5.891,0-10.667,4.776-10.667,10.667S239.442,64,245.333,64
		C251.224,64,256,59.224,256,53.333s-4.776-10.667-10.667-10.667H245.547z"/>
	<path style="fill:#455A64;" d="M245.547,85.333h-0.213c-5.891,0-10.667,4.776-10.667,10.667c0,5.891,4.776,10.667,10.667,10.667
		c5.891,0,10.667-4.776,10.667-10.667c0-5.891-4.776-10.667-10.667-10.667H245.547z"/>
	<path style="fill:#455A64;" d="M245.547,128h-0.213c-5.891,0-10.667,4.776-10.667,10.667s4.776,10.667,10.667,10.667
		c5.891,0,10.667-4.776,10.667-10.667S251.224,128,245.333,128H245.547z"/>
	<path style="fill:#455A64;" d="M245.547,170.667h-0.213c-5.891,0-10.667,4.776-10.667,10.667c0,5.891,4.776,10.667,10.667,10.667
		c5.891,0,10.667-4.776,10.667-10.667c0-5.891-4.776-10.667-10.667-10.667H245.547z"/>
	<path style="fill:#455A64;" d="M245.547,213.333h-0.213c-5.891,0-10.667,4.776-10.667,10.667c0,5.891,4.776,10.667,10.667,10.667
		c5.891,0,10.667-4.776,10.667-10.667c0-5.891-4.776-10.667-10.667-10.667H245.547z"/>
	<path style="fill:#455A64;" d="M245.547,256h-0.213c-5.891,0-10.667,4.776-10.667,10.667c0,5.891,4.776,10.667,10.667,10.667
		c5.891,0,10.667-4.776,10.667-10.667c0-5.891-4.776-10.667-10.667-10.667H245.547z"/>
	<path style="fill:#455A64;" d="M202.88,42.667h-0.213c-5.891,0-10.667,4.776-10.667,10.667S196.776,64,202.667,64
		s10.667-4.776,10.667-10.667s-4.776-10.667-10.667-10.667H202.88z"/>
	<path style="fill:#455A64;" d="M202.88,85.333h-0.213C196.776,85.333,192,90.109,192,96c0,5.891,4.776,10.667,10.667,10.667
		s10.667-4.776,10.667-10.667c0-5.891-4.776-10.667-10.667-10.667H202.88z"/>
	<path style="fill:#455A64;" d="M202.88,128h-0.213c-5.891,0-10.667,4.776-10.667,10.667s4.776,10.667,10.667,10.667
		s10.667-4.776,10.667-10.667S208.558,128,202.667,128H202.88z"/>
	<path style="fill:#455A64;" d="M202.88,170.667h-0.213c-5.891,0-10.667,4.776-10.667,10.667c0,5.891,4.776,10.667,10.667,10.667
		s10.667-4.776,10.667-10.667c0-5.891-4.776-10.667-10.667-10.667H202.88z"/>
	<path style="fill:#455A64;" d="M202.88,213.333h-0.213c-5.891,0-10.667,4.776-10.667,10.667c0,5.891,4.776,10.667,10.667,10.667
		s10.667-4.776,10.667-10.667c0-5.891-4.776-10.667-10.667-10.667H202.88z"/>
	<path style="fill:#455A64;" d="M160.213,85.333H160c-5.891,0-10.667,4.776-10.667,10.667c0.001,5.891,4.778,10.666,10.669,10.665
		c5.891-0.001,10.666-4.778,10.665-10.669C170.666,90.189,166.019,85.449,160.213,85.333z"/>
	<path style="fill:#455A64;" d="M160.213,128H160c-5.891,0-10.667,4.776-10.667,10.667c0.001,5.891,4.778,10.666,10.669,10.665
		c5.891-0.001,10.666-4.778,10.665-10.669C170.666,132.855,166.019,128.116,160.213,128z"/>
	<path style="fill:#455A64;" d="M160.213,170.667H160c-5.891,0-10.667,4.776-10.667,10.667c0.001,5.891,4.778,10.666,10.669,10.665
		c5.891-0.001,10.666-4.778,10.665-10.669C170.666,175.522,166.019,170.783,160.213,170.667z"/>
	<path style="fill:#455A64;" d="M160.213,213.333H160c-5.891,0-10.667,4.776-10.667,10.667c0,5.891,4.776,10.667,10.667,10.667
		s10.667-4.776,10.667-10.667c0-5.891-4.776-10.667-10.667-10.667H160.213z"/>
	<path style="fill:#455A64;" d="M117.547,128h-0.213c-5.891,0-10.667,4.776-10.667,10.667c0.001,5.891,4.778,10.666,10.669,10.665
		c5.891-0.001,10.666-4.778,10.665-10.669C127.999,132.855,123.353,128.116,117.547,128z"/>
	<path style="fill:#455A64;" d="M117.547,170.667h-0.213c-5.891,0-10.667,4.776-10.667,10.667
		c0.001,5.891,4.778,10.666,10.669,10.665c5.891-0.001,10.666-4.778,10.665-10.669C127.999,175.522,123.353,170.783,117.547,170.667
		z"/>
	<path style="fill:#455A64;" d="M117.547,213.333h-0.213c-5.891,0-10.667,4.776-10.667,10.667c0,5.891,4.776,10.667,10.667,10.667
		c5.891,0,10.667-4.776,10.667-10.667c0-5.891-4.776-10.667-10.667-10.667H117.547z"/>
	<path style="fill:#455A64;" d="M74.88,170.667h-0.213c-5.891,0-10.667,4.776-10.667,10.667c0.001,5.891,4.778,10.666,10.669,10.665
		c5.891-0.001,10.666-4.778,10.665-10.669C85.332,175.522,80.686,170.783,74.88,170.667z"/>
	<path style="fill:#455A64;" d="M74.88,213.333h-0.213C68.776,213.333,64,218.109,64,224c0,5.891,4.776,10.667,10.667,10.667
		S85.333,229.891,85.333,224c0-5.891-4.776-10.667-10.667-10.667H74.88z"/>
	<path style="fill:#455A64;" d="M32.213,213.333H32c-5.891,0-10.667,4.776-10.667,10.667c0,5.891,4.776,10.667,10.667,10.667
		S42.667,229.891,42.667,224c0-5.891-4.776-10.667-10.667-10.667H32.213z"/>
	<path style="fill:#455A64;" d="M288.213,42.667H288c-5.891,0-10.667,4.776-10.667,10.667S282.109,64,288,64
		c5.891,0,10.667-4.776,10.667-10.667S293.891,42.667,288,42.667H288.213z"/>
	<path style="fill:#455A64;" d="M288.213,85.333H288c-5.891,0-10.667,4.776-10.667,10.667c0,5.891,4.776,10.667,10.667,10.667
		c5.891,0,10.667-4.776,10.667-10.667c0-5.891-4.776-10.667-10.667-10.667H288.213z"/>
	<path style="fill:#455A64;" d="M288.213,128H288c-5.891,0-10.667,4.776-10.667,10.667s4.776,10.667,10.667,10.667
		c5.891,0,10.667-4.776,10.667-10.667S293.891,128,288,128H288.213z"/>
	<path style="fill:#455A64;" d="M288.213,170.667H288c-5.891,0-10.667,4.776-10.667,10.667c0,5.891,4.776,10.667,10.667,10.667
		c5.891,0,10.667-4.776,10.667-10.667c0-5.891-4.776-10.667-10.667-10.667H288.213z"/>
	<path style="fill:#455A64;" d="M288.213,213.333H288c-5.891,0-10.667,4.776-10.667,10.667c0,5.891,4.776,10.667,10.667,10.667
		c5.891,0,10.667-4.776,10.667-10.667c0-5.891-4.776-10.667-10.667-10.667H288.213z"/>
	<path style="fill:#455A64;" d="M330.88,85.333h-0.213C324.776,85.333,320,90.109,320,96c0,5.891,4.776,10.667,10.667,10.667
		c5.891,0,10.667-4.776,10.667-10.667c0-5.891-4.776-10.667-10.667-10.667H330.88z"/>
	<path style="fill:#455A64;" d="M330.88,128h-0.213c-5.891,0-10.667,4.776-10.667,10.667s4.776,10.667,10.667,10.667
		c5.891,0,10.667-4.776,10.667-10.667S336.558,128,330.667,128H330.88z"/>
	<path style="fill:#455A64;" d="M330.88,170.667h-0.213c-5.891,0-10.667,4.776-10.667,10.667c0,5.891,4.776,10.667,10.667,10.667
		c5.891,0,10.667-4.776,10.667-10.667c0-5.891-4.776-10.667-10.667-10.667H330.88z"/>
	<path style="fill:#455A64;" d="M330.88,213.333h-0.213c-5.891,0-10.667,4.776-10.667,10.667c0,5.891,4.776,10.667,10.667,10.667
		c5.891,0,10.667-4.776,10.667-10.667c0-5.891-4.776-10.667-10.667-10.667H330.88z"/>
	<path style="fill:#455A64;" d="M373.547,128h-0.213c-5.891,0-10.667,4.776-10.667,10.667s4.776,10.667,10.667,10.667
		S384,144.558,384,138.667S379.224,128,373.333,128H373.547z"/>
	<path style="fill:#455A64;" d="M373.547,170.667h-0.213c-5.891,0-10.667,4.776-10.667,10.667c0,5.891,4.776,10.667,10.667,10.667
		S384,187.224,384,181.333c0-5.891-4.776-10.667-10.667-10.667H373.547z"/>
	<path style="fill:#455A64;" d="M373.547,213.333h-0.213c-5.891,0-10.667,4.776-10.667,10.667c0,5.891,4.776,10.667,10.667,10.667
		S384,229.891,384,224c0-5.891-4.776-10.667-10.667-10.667H373.547z"/>
	<path style="fill:#455A64;" d="M416.213,170.667H416c-5.891,0-10.667,4.776-10.667,10.667c0,5.891,4.776,10.667,10.667,10.667
		c5.891,0,10.667-4.776,10.667-10.667c0-5.891-4.776-10.667-10.667-10.667H416.213z"/>
	<path style="fill:#455A64;" d="M416.213,213.333H416c-5.891,0-10.667,4.776-10.667,10.667c0,5.891,4.776,10.667,10.667,10.667
		c5.891,0,10.667-4.776,10.667-10.667c0-5.891-4.776-10.667-10.667-10.667H416.213z"/>
	<path style="fill:#455A64;" d="M458.88,213.333h-0.213c-5.891,0-10.667,4.776-10.667,10.667c0,5.891,4.776,10.667,10.667,10.667
		c5.891,0,10.667-4.776,10.667-10.667c0-5.891-4.776-10.667-10.667-10.667H458.88z"/>
	<path style="fill:#455A64;" d="M245.547,298.667h-0.213c-5.891,0-10.667,4.776-10.667,10.667S239.442,320,245.333,320
		c5.891,0,10.667-4.776,10.667-10.667s-4.776-10.667-10.667-10.667H245.547z"/>
	<path style="fill:#455A64;" d="M245.547,341.333h-0.213c-5.891,0-10.667,4.776-10.667,10.667c0,5.891,4.776,10.667,10.667,10.667
		c5.891,0,10.667-4.776,10.667-10.667c0-5.891-4.776-10.667-10.667-10.667H245.547z"/>
	<path style="fill:#455A64;" d="M245.547,384h-0.213c-5.891,0-10.667,4.776-10.667,10.667c0,5.891,4.776,10.667,10.667,10.667
		c5.891,0,10.667-4.776,10.667-10.667c0-5.891-4.776-10.667-10.667-10.667H245.547z"/>
	<path style="fill:#455A64;" d="M245.547,426.667h-0.213c-5.891,0-10.667,4.776-10.667,10.667S239.442,448,245.333,448
		c5.891,0,10.667-4.776,10.667-10.667s-4.776-10.667-10.667-10.667H245.547z"/>
	<path style="fill:#455A64;" d="M245.547,469.333h-0.213c-5.891,0-10.667,4.776-10.667,10.667c0,5.891,4.776,10.667,10.667,10.667
		c5.891,0,10.667-4.776,10.667-10.667c0-5.891-4.776-10.667-10.667-10.667H245.547z"/>
	<path style="fill:#455A64;" d="M288.213,256H288c-5.891,0-10.667,4.776-10.667,10.667c0,5.891,4.776,10.667,10.667,10.667
		c5.891,0,10.667-4.776,10.667-10.667c0-5.891-4.776-10.667-10.667-10.667H288.213z"/>
	<path style="fill:#455A64;" d="M288.213,298.667H288c-5.891,0-10.667,4.776-10.667,10.667S282.109,320,288,320
		c5.891,0,10.667-4.776,10.667-10.667s-4.776-10.667-10.667-10.667H288.213z"/>
	<path style="fill:#455A64;" d="M288.213,341.333H288c-5.891,0-10.667,4.776-10.667,10.667c0,5.891,4.776,10.667,10.667,10.667
		c5.891,0,10.667-4.776,10.667-10.667c0-5.891-4.776-10.667-10.667-10.667H288.213z"/>
	<path style="fill:#455A64;" d="M288.213,384H288c-5.891,0-10.667,4.776-10.667,10.667c0,5.891,4.776,10.667,10.667,10.667
		c5.891,0,10.667-4.776,10.667-10.667c0-5.891-4.776-10.667-10.667-10.667H288.213z"/>
	<path style="fill:#455A64;" d="M288.213,426.667H288c-5.891,0-10.667,4.776-10.667,10.667S282.109,448,288,448
		c5.891,0,10.667-4.776,10.667-10.667s-4.776-10.667-10.667-10.667H288.213z"/>
	<path style="fill:#455A64;" d="M288.213,469.333H288c-5.891,0-10.667,4.776-10.667,10.667c0,5.891,4.776,10.667,10.667,10.667
		c5.891,0,10.667-4.776,10.667-10.667c0-5.891-4.776-10.667-10.667-10.667H288.213z"/>
	<path style="fill:#455A64;" d="M202.88,256h-0.213c-5.891,0-10.667,4.776-10.667,10.667c0,5.891,4.776,10.667,10.667,10.667
		s10.667-4.776,10.667-10.667c0-5.891-4.776-10.667-10.667-10.667H202.88z"/>
	<path style="fill:#455A64;" d="M202.88,298.667h-0.213c-5.891,0-10.667,4.776-10.667,10.667S196.776,320,202.667,320
		s10.667-4.776,10.667-10.667s-4.776-10.667-10.667-10.667H202.88z"/>
	<path style="fill:#455A64;" d="M202.88,341.333h-0.213c-5.891,0-10.667,4.776-10.667,10.667c0,5.891,4.776,10.667,10.667,10.667
		s10.667-4.776,10.667-10.667c0-5.891-4.776-10.667-10.667-10.667H202.88z"/>
	<path style="fill:#455A64;" d="M202.88,384h-0.213c-5.891,0-10.667,4.776-10.667,10.667c0,5.891,4.776,10.667,10.667,10.667
		s10.667-4.776,10.667-10.667c0-5.891-4.776-10.667-10.667-10.667H202.88z"/>
	<path style="fill:#455A64;" d="M202.88,426.667h-0.213c-5.891,0-10.667,4.776-10.667,10.667S196.776,448,202.667,448
		s10.667-4.776,10.667-10.667s-4.776-10.667-10.667-10.667H202.88z"/>
	<path style="fill:#455A64;" d="M202.88,469.333h-0.213c-5.891,0-10.667,4.776-10.667,10.667c0,5.891,4.776,10.667,10.667,10.667
		s10.667-4.776,10.667-10.667c0-5.891-4.776-10.667-10.667-10.667H202.88z"/>
</g>
<g>
</g>
<g>
</g>
<g>
</g>
<g>
</g>
<g>
</g>
<g>
</g>
<g>
</g>
<g>
</g>
<g>
</g>
<g>
</g>
<g>
</g>
<g>
</g>
<g>
</g>
<g>
</g>
<g>
</g>
</svg>
