<?xml version="1.0" encoding="iso-8859-1"?>
<!-- Generator: Adobe Illustrator 19.0.0, SVG Export Plug-In . SVG Version: 6.00 Build 0)  -->
<svg version="1.1" id="Capa_1" xmlns="http://www.w3.org/2000/svg" xmlns:xlink="http://www.w3.org/1999/xlink" x="0px" y="0px"
	 viewBox="0 0 511.998 511.998" style="enable-background:new 0 0 511.998 511.998;" xml:space="preserve">
<path style="fill:#4CAF50;" d="M263.431,3.134c-4.16-4.171-10.914-4.179-15.085-0.019c-0.006,0.006-0.013,0.013-0.019,0.019
	l-192,192c-4.093,4.237-3.975,10.99,0.262,15.083c4.134,3.992,10.687,3.992,14.82,0L245.212,36.414v464.917
	c0,5.891,4.776,10.667,10.667,10.667s10.667-4.776,10.667-10.667V36.414l173.781,173.781c4.093,4.237,10.845,4.355,15.083,0.262
	c4.237-4.093,4.354-10.845,0.262-15.083c-0.086-0.089-0.173-0.176-0.262-0.262L263.431,3.134z"/>
<g>
</g>
<g>
</g>
<g>
</g>
<g>
</g>
<g>
</g>
<g>
</g>
<g>
</g>
<g>
</g>
<g>
</g>
<g>
</g>
<g>
</g>
<g>
</g>
<g>
</g>
<g>
</g>
<g>
</g>
</svg>
