<?xml version="1.0" encoding="iso-8859-1"?>
<!-- Generator: Adobe Illustrator 19.0.0, SVG Export Plug-In . SVG Version: 6.00 Build 0)  -->
<svg version="1.1" id="Capa_1" xmlns="http://www.w3.org/2000/svg" xmlns:xlink="http://www.w3.org/1999/xlink" x="0px" y="0px"
	 viewBox="0 0 405.333 405.333" style="enable-background:new 0 0 405.333 405.333;" xml:space="preserve">
<g>
	<path style="fill:#00BCD4;" d="M10.88,384h-0.213C4.776,384,0,388.776,0,394.667c0,5.891,4.776,10.667,10.667,10.667
		s10.667-4.776,10.667-10.667c0-5.891-4.776-10.667-10.667-10.667H10.88z"/>
	<path style="fill:#00BCD4;" d="M10.88,341.333h-0.213C4.776,341.333,0,346.109,0,352c0,5.891,4.776,10.667,10.667,10.667
		S21.333,357.891,21.333,352c0-5.891-4.776-10.667-10.667-10.667H10.88z"/>
	<path style="fill:#00BCD4;" d="M10.88,298.667h-0.213C4.776,298.667,0,303.442,0,309.333S4.776,320,10.667,320
		s10.667-4.776,10.667-10.667s-4.776-10.667-10.667-10.667H10.88z"/>
	<path style="fill:#00BCD4;" d="M10.88,256h-0.213C4.776,256,0,260.776,0,266.667c0,5.891,4.776,10.667,10.667,10.667
		s10.667-4.776,10.667-10.667c0-5.891-4.776-10.667-10.667-10.667H10.88z"/>
	<path style="fill:#00BCD4;" d="M10.88,213.333h-0.213C4.776,213.333,0,218.109,0,224c0,5.891,4.776,10.667,10.667,10.667
		S21.333,229.891,21.333,224c0-5.891-4.776-10.667-10.667-10.667H10.88z"/>
	<path style="fill:#00BCD4;" d="M10.88,170.667h-0.213C4.776,170.667,0,175.442,0,181.333C0,187.224,4.776,192,10.667,192
		s10.667-4.776,10.667-10.667c0-5.891-4.776-10.667-10.667-10.667H10.88z"/>
	<path style="fill:#00BCD4;" d="M10.88,128h-0.213C4.776,128,0,132.776,0,138.667c0.001,5.891,4.778,10.666,10.669,10.665
		c5.891-0.001,10.666-4.778,10.665-10.669C21.332,132.855,16.686,128.116,10.88,128z"/>
	<path style="fill:#00BCD4;" d="M10.88,85.333h-0.213C4.776,85.333,0,90.109,0,96c0.001,5.891,4.778,10.666,10.669,10.665
		c5.891-0.001,10.666-4.778,10.665-10.669C21.332,90.189,16.686,85.449,10.88,85.333z"/>
	<path style="fill:#00BCD4;" d="M53.547,384h-0.213c-5.891,0-10.667,4.776-10.667,10.667c0,5.891,4.776,10.667,10.667,10.667
		S64,400.558,64,394.667C64,388.776,59.224,384,53.333,384H53.547z"/>
	<path style="fill:#00BCD4;" d="M53.547,341.333h-0.213c-5.891,0-10.667,4.776-10.667,10.667c0,5.891,4.776,10.667,10.667,10.667
		S64,357.891,64,352c0-5.891-4.776-10.667-10.667-10.667H53.547z"/>
	<path style="fill:#00BCD4;" d="M53.547,298.667h-0.213c-5.891,0-10.667,4.776-10.667,10.667S47.442,320,53.333,320
		S64,315.224,64,309.333s-4.776-10.667-10.667-10.667H53.547z"/>
	<path style="fill:#00BCD4;" d="M53.547,256h-0.213c-5.891,0-10.667,4.776-10.667,10.667c0,5.891,4.776,10.667,10.667,10.667
		S64,272.558,64,266.667C64,260.776,59.224,256,53.333,256H53.547z"/>
	<path style="fill:#00BCD4;" d="M53.547,213.333h-0.213c-5.891,0-10.667,4.776-10.667,10.667c0,5.891,4.776,10.667,10.667,10.667
		S64,229.891,64,224c0-5.891-4.776-10.667-10.667-10.667H53.547z"/>
	<path style="fill:#00BCD4;" d="M53.547,170.667h-0.213c-5.891,0-10.667,4.776-10.667,10.667c0,5.891,4.776,10.667,10.667,10.667
		S64,187.224,64,181.333c0-5.891-4.776-10.667-10.667-10.667H53.547z"/>
	<path style="fill:#00BCD4;" d="M53.547,128h-0.213c-5.891,0-10.667,4.776-10.667,10.667c0.001,5.891,4.778,10.666,10.669,10.665
		c5.891-0.001,10.666-4.778,10.665-10.669C63.999,132.855,59.353,128.116,53.547,128z"/>
	<path style="fill:#00BCD4;" d="M96.213,384H96c-5.891,0-10.667,4.776-10.667,10.667c0,5.891,4.776,10.667,10.667,10.667
		s10.667-4.776,10.667-10.667c0-5.891-4.776-10.667-10.667-10.667H96.213z"/>
	<path style="fill:#00BCD4;" d="M96.213,341.333H96c-5.891,0-10.667,4.776-10.667,10.667c0,5.891,4.776,10.667,10.667,10.667
		s10.667-4.776,10.667-10.667c0-5.891-4.776-10.667-10.667-10.667H96.213z"/>
	<path style="fill:#00BCD4;" d="M96.213,298.667H96c-5.891,0-10.667,4.776-10.667,10.667S90.109,320,96,320
		s10.667-4.776,10.667-10.667S101.891,298.667,96,298.667H96.213z"/>
	<path style="fill:#00BCD4;" d="M96.213,256H96c-5.891,0-10.667,4.776-10.667,10.667c0,5.891,4.776,10.667,10.667,10.667
		s10.667-4.776,10.667-10.667c0-5.891-4.776-10.667-10.667-10.667H96.213z"/>
	<path style="fill:#00BCD4;" d="M96.213,213.333H96c-5.891,0-10.667,4.776-10.667,10.667c0,5.891,4.776,10.667,10.667,10.667
		s10.667-4.776,10.667-10.667c0-5.891-4.776-10.667-10.667-10.667H96.213z"/>
	<path style="fill:#00BCD4;" d="M96.213,170.667H96c-5.891,0-10.667,4.776-10.667,10.667C85.333,187.224,90.109,192,96,192
		s10.667-4.776,10.667-10.667c0-5.891-4.776-10.667-10.667-10.667H96.213z"/>
	<path style="fill:#00BCD4;" d="M138.88,384h-0.213c-5.891,0-10.667,4.776-10.667,10.667c0,5.891,4.776,10.667,10.667,10.667
		c5.891,0,10.667-4.776,10.667-10.667c0-5.891-4.776-10.667-10.667-10.667H138.88z"/>
	<path style="fill:#00BCD4;" d="M138.88,341.333h-0.213c-5.891,0-10.667,4.776-10.667,10.667c0,5.891,4.776,10.667,10.667,10.667
		c5.891,0,10.667-4.776,10.667-10.667c0-5.891-4.776-10.667-10.667-10.667H138.88z"/>
	<path style="fill:#00BCD4;" d="M138.88,298.667h-0.213c-5.891,0-10.667,4.776-10.667,10.667S132.776,320,138.667,320
		c5.891,0,10.667-4.776,10.667-10.667s-4.776-10.667-10.667-10.667H138.88z"/>
	<path style="fill:#00BCD4;" d="M138.88,256h-0.213c-5.891,0-10.667,4.776-10.667,10.667c0,5.891,4.776,10.667,10.667,10.667
		c5.891,0,10.667-4.776,10.667-10.667c0-5.891-4.776-10.667-10.667-10.667H138.88z"/>
	<path style="fill:#00BCD4;" d="M138.88,213.333h-0.213c-5.891,0-10.667,4.776-10.667,10.667c0,5.891,4.776,10.667,10.667,10.667
		c5.891,0,10.667-4.776,10.667-10.667c0-5.891-4.776-10.667-10.667-10.667H138.88z"/>
	<path style="fill:#00BCD4;" d="M181.547,384h-0.213c-5.891,0-10.667,4.776-10.667,10.667c0,5.891,4.776,10.667,10.667,10.667
		c5.891,0,10.667-4.776,10.667-10.667c0-5.891-4.776-10.667-10.667-10.667H181.547z"/>
	<path style="fill:#00BCD4;" d="M181.547,341.333h-0.213c-5.891,0-10.667,4.776-10.667,10.667c0,5.891,4.776,10.667,10.667,10.667
		c5.891,0,10.667-4.776,10.667-10.667c0-5.891-4.776-10.667-10.667-10.667H181.547z"/>
	<path style="fill:#00BCD4;" d="M181.547,298.667h-0.213c-5.891,0-10.667,4.776-10.667,10.667S175.442,320,181.333,320
		c5.891,0,10.667-4.776,10.667-10.667s-4.776-10.667-10.667-10.667H181.547z"/>
	<path style="fill:#00BCD4;" d="M181.547,256h-0.213c-5.891,0-10.667,4.776-10.667,10.667c0,5.891,4.776,10.667,10.667,10.667
		c5.891,0,10.667-4.776,10.667-10.667c0-5.891-4.776-10.667-10.667-10.667H181.547z"/>
	<path style="fill:#00BCD4;" d="M224.213,384H224c-5.891,0-10.667,4.776-10.667,10.667c0,5.891,4.776,10.667,10.667,10.667
		c5.891,0,10.667-4.776,10.667-10.667c0-5.891-4.776-10.667-10.667-10.667H224.213z"/>
	<path style="fill:#00BCD4;" d="M224.213,341.333H224c-5.891,0-10.667,4.776-10.667,10.667c0,5.891,4.776,10.667,10.667,10.667
		c5.891,0,10.667-4.776,10.667-10.667c0-5.891-4.776-10.667-10.667-10.667H224.213z"/>
	<path style="fill:#00BCD4;" d="M224.213,298.667H224c-5.891,0-10.667,4.776-10.667,10.667S218.109,320,224,320
		c5.891,0,10.667-4.776,10.667-10.667s-4.776-10.667-10.667-10.667H224.213z"/>
	<path style="fill:#00BCD4;" d="M181.547,213.333h-0.213c-5.891,0-10.667,4.776-10.667,10.667c0,5.891,4.776,10.667,10.667,10.667
		c5.891,0,10.667-4.776,10.667-10.667c0-5.891-4.776-10.667-10.667-10.667H181.547z"/>
	<path style="fill:#00BCD4;" d="M181.547,170.667h-0.213c-5.891,0-10.667,4.776-10.667,10.667c0,5.891,4.776,10.667,10.667,10.667
		c5.891,0,10.667-4.776,10.667-10.667c0-5.891-4.776-10.667-10.667-10.667H181.547z"/>
	<path style="fill:#00BCD4;" d="M224.213,213.333H224c-5.891,0-10.667,4.776-10.667,10.667c0,5.891,4.776,10.667,10.667,10.667
		c5.891,0,10.667-4.776,10.667-10.667c0-5.891-4.776-10.667-10.667-10.667H224.213z"/>
	<path style="fill:#00BCD4;" d="M224.213,170.667H224c-5.891,0-10.667,4.776-10.667,10.667c0,5.891,4.776,10.667,10.667,10.667
		c5.891,0,10.667-4.776,10.667-10.667c0-5.891-4.776-10.667-10.667-10.667H224.213z"/>
	<path style="fill:#00BCD4;" d="M224.213,128H224c-5.891,0-10.667,4.776-10.667,10.667s4.776,10.667,10.667,10.667
		c5.891,0,10.667-4.776,10.667-10.667S229.891,128,224,128H224.213z"/>
	<path style="fill:#00BCD4;" d="M266.88,170.667h-0.213c-5.891,0-10.667,4.776-10.667,10.667c0,5.891,4.776,10.667,10.667,10.667
		c5.891,0,10.667-4.776,10.667-10.667c0-5.891-4.776-10.667-10.667-10.667H266.88z"/>
	<path style="fill:#00BCD4;" d="M266.88,128h-0.213c-5.891,0-10.667,4.776-10.667,10.667s4.776,10.667,10.667,10.667
		c5.891,0,10.667-4.776,10.667-10.667S272.558,128,266.667,128H266.88z"/>
	<path style="fill:#00BCD4;" d="M266.88,85.333h-0.213C260.776,85.333,256,90.109,256,96c0,5.891,4.776,10.667,10.667,10.667
		c5.891,0,10.667-4.776,10.667-10.667c0-5.891-4.776-10.667-10.667-10.667H266.88z"/>
	<path style="fill:#00BCD4;" d="M309.547,128h-0.213c-5.891,0-10.667,4.776-10.667,10.667s4.776,10.667,10.667,10.667
		S320,144.558,320,138.667S315.224,128,309.333,128H309.547z"/>
	<path style="fill:#00BCD4;" d="M309.547,85.333h-0.213c-5.891,0-10.667,4.776-10.667,10.667c0,5.891,4.776,10.667,10.667,10.667
		S320,101.891,320,96c0-5.891-4.776-10.667-10.667-10.667H309.547z"/>
	<path style="fill:#00BCD4;" d="M309.547,42.667h-0.213c-5.891,0-10.667,4.776-10.667,10.667S303.442,64,309.333,64
		S320,59.224,320,53.333s-4.776-10.667-10.667-10.667H309.547z"/>
	<path style="fill:#00BCD4;" d="M352.213,85.333H352c-5.891,0-10.667,4.776-10.667,10.667c0,5.891,4.776,10.667,10.667,10.667
		c5.891,0,10.667-4.776,10.667-10.667c0-5.891-4.776-10.667-10.667-10.667H352.213z"/>
	<path style="fill:#00BCD4;" d="M352.213,42.667H352c-5.891,0-10.667,4.776-10.667,10.667S346.109,64,352,64
		c5.891,0,10.667-4.776,10.667-10.667S357.891,42.667,352,42.667H352.213z"/>
	<path style="fill:#00BCD4;" d="M352.213,0H352c-5.891,0-10.667,4.776-10.667,10.667S346.109,21.333,352,21.333
		c5.891,0,10.667-4.776,10.667-10.667S357.891,0,352,0H352.213z"/>
	<path style="fill:#00BCD4;" d="M394.88,42.667h-0.213c-5.891,0-10.667,4.776-10.667,10.667S388.776,64,394.667,64
		c5.891,0,10.667-4.776,10.667-10.667s-4.776-10.667-10.667-10.667H394.88z"/>
	<path style="fill:#00BCD4;" d="M266.88,384h-0.213c-5.891,0-10.667,4.776-10.667,10.667c0,5.891,4.776,10.667,10.667,10.667
		c5.891,0,10.667-4.776,10.667-10.667c0-5.891-4.776-10.667-10.667-10.667H266.88z"/>
	<path style="fill:#00BCD4;" d="M266.88,341.333h-0.213c-5.891,0-10.667,4.776-10.667,10.667c0,5.891,4.776,10.667,10.667,10.667
		c5.891,0,10.667-4.776,10.667-10.667c0-5.891-4.776-10.667-10.667-10.667H266.88z"/>
	<path style="fill:#00BCD4;" d="M309.547,384h-0.213c-5.891,0-10.667,4.776-10.667,10.667c0,5.891,4.776,10.667,10.667,10.667
		S320,400.558,320,394.667c0-5.891-4.776-10.667-10.667-10.667H309.547z"/>
</g>
<g>
</g>
<g>
</g>
<g>
</g>
<g>
</g>
<g>
</g>
<g>
</g>
<g>
</g>
<g>
</g>
<g>
</g>
<g>
</g>
<g>
</g>
<g>
</g>
<g>
</g>
<g>
</g>
<g>
</g>
</svg>
