<?xml version="1.0" encoding="iso-8859-1"?>
<!-- Generator: Adobe Illustrator 19.0.0, SVG Export Plug-In . SVG Version: 6.00 Build 0)  -->
<svg version="1.1" id="Capa_1" xmlns="http://www.w3.org/2000/svg" xmlns:xlink="http://www.w3.org/1999/xlink" x="0px" y="0px"
	 viewBox="0 0 384.142 384.142" style="enable-background:new 0 0 384.142 384.142;" xml:space="preserve">
<path style="fill:#FFC107;" d="M365.781,3.246L21.333,347.715V96.131c0-5.891-4.776-10.667-10.667-10.667S0,90.24,0,96.131v277.333
	c0,5.891,4.776,10.667,10.667,10.667H288c5.891,0,10.667-4.776,10.667-10.667c0-5.891-4.776-10.667-10.667-10.667H36.416
	L380.885,18.35c4.237-4.093,4.354-10.845,0.262-15.083c-4.093-4.237-10.845-4.354-15.083-0.262
	c-0.089,0.086-0.176,0.173-0.262,0.262L365.781,3.246z"/>
<g>
</g>
<g>
</g>
<g>
</g>
<g>
</g>
<g>
</g>
<g>
</g>
<g>
</g>
<g>
</g>
<g>
</g>
<g>
</g>
<g>
</g>
<g>
</g>
<g>
</g>
<g>
</g>
<g>
</g>
</svg>
