<?xml version="1.0" encoding="iso-8859-1"?>
<!-- Generator: Adobe Illustrator 19.0.0, SVG Export Plug-In . SVG Version: 6.00 Build 0)  -->
<svg version="1.1" id="Capa_1" xmlns="http://www.w3.org/2000/svg" xmlns:xlink="http://www.w3.org/1999/xlink" x="0px" y="0px"
	 viewBox="0 0 490.667 490.667" style="enable-background:new 0 0 490.667 490.667;" xml:space="preserve">
<path style="fill:#009688;" d="M71.851,71.801c-95.805,95.812-95.8,251.148,0.012,346.954s251.148,95.8,346.954-0.012
	c95.801-95.807,95.801-251.135,0-346.942C322.938-23.851,167.729-23.851,71.851,71.801z"/>
<path style="fill:#FAFAFA;" d="M402.219,173.731l-85.333-85.333c-4.165-4.164-10.917-4.164-15.083,0L192,198.201l-45.781-45.803
	c-4.16-4.171-10.914-4.179-15.085-0.019c-2.011,2.006-3.139,4.731-3.134,7.571v192c0,5.891,4.776,10.667,10.667,10.667h192
	c5.891,0.011,10.675-4.757,10.686-10.648c0.005-2.84-1.123-5.565-3.134-7.571l-45.803-45.781l109.781-109.781
	c4.177-4.154,4.195-10.908,0.04-15.085C402.231,173.744,402.225,173.738,402.219,173.731z"/>
<g>
</g>
<g>
</g>
<g>
</g>
<g>
</g>
<g>
</g>
<g>
</g>
<g>
</g>
<g>
</g>
<g>
</g>
<g>
</g>
<g>
</g>
<g>
</g>
<g>
</g>
<g>
</g>
<g>
</g>
</svg>
