<?xml version="1.0" encoding="iso-8859-1"?>
<!-- Generator: Adobe Illustrator 19.0.0, SVG Export Plug-In . SVG Version: 6.00 Build 0)  -->
<svg version="1.1" id="Capa_1" xmlns="http://www.w3.org/2000/svg" xmlns:xlink="http://www.w3.org/1999/xlink" x="0px" y="0px"
	 viewBox="0 0 490.667 490.667" style="enable-background:new 0 0 490.667 490.667;" xml:space="preserve">
<path style="fill:#009688;" d="M71.851,71.801c-95.805,95.812-95.8,251.148,0.012,346.954s251.148,95.8,346.954-0.012
	c95.801-95.807,95.801-251.135,0-346.942C322.938-23.851,167.729-23.851,71.851,71.801z"/>
<path style="fill:#FAFAFA;" d="M356.075,150.094c-3.985-1.654-8.574-0.745-11.627,2.304l-45.781,45.803L188.885,88.398
	c-4.165-4.164-10.917-4.164-15.083,0l-85.333,85.333c-4.164,4.165-4.164,10.917,0,15.083l109.781,109.803l-45.803,45.781
	c-4.171,4.16-4.179,10.914-0.019,15.085c2.006,2.011,4.731,3.139,7.571,3.134h192c5.891,0,10.667-4.776,10.667-10.667v-192
	C362.666,155.633,360.064,151.743,356.075,150.094z"/>
<g>
</g>
<g>
</g>
<g>
</g>
<g>
</g>
<g>
</g>
<g>
</g>
<g>
</g>
<g>
</g>
<g>
</g>
<g>
</g>
<g>
</g>
<g>
</g>
<g>
</g>
<g>
</g>
<g>
</g>
</svg>
