<?xml version="1.0" encoding="iso-8859-1"?>
<!-- Generator: Adobe Illustrator 19.0.0, SVG Export Plug-In . SVG Version: 6.00 Build 0)  -->
<svg version="1.1" id="Capa_1" xmlns="http://www.w3.org/2000/svg" xmlns:xlink="http://www.w3.org/1999/xlink" x="0px" y="0px"
	 viewBox="0 0 490.603 490.603" style="enable-background:new 0 0 490.603 490.603;" xml:space="preserve">
<g>
	<path style="fill:#009688;" d="M480.149,234.635h-0.213c-5.891,0-10.667,4.776-10.667,10.667c0,5.891,4.776,10.667,10.667,10.667
		c5.891,0,10.667-4.776,10.667-10.667c0-5.891-4.776-10.667-10.667-10.667H480.149z"/>
	<path style="fill:#009688;" d="M437.483,234.635h-0.213c-5.891,0-10.667,4.776-10.667,10.667c0,5.891,4.776,10.667,10.667,10.667
		c5.891,0,10.667-4.776,10.667-10.667c0-5.891-4.776-10.667-10.667-10.667H437.483z"/>
	<path style="fill:#009688;" d="M394.816,234.635h-0.213c-5.891,0-10.667,4.776-10.667,10.667c0,5.891,4.776,10.667,10.667,10.667
		c5.891,0,10.667-4.776,10.667-10.667c0-5.891-4.776-10.667-10.667-10.667H394.816z"/>
	<path style="fill:#009688;" d="M352.149,234.635h-0.213c-5.891,0-10.667,4.776-10.667,10.667c0,5.891,4.776,10.667,10.667,10.667
		s10.667-4.776,10.667-10.667c0-5.891-4.776-10.667-10.667-10.667H352.149z"/>
	<path style="fill:#009688;" d="M309.483,234.635h-0.213c-5.891,0-10.667,4.776-10.667,10.667c0,5.891,4.776,10.667,10.667,10.667
		c5.891,0,10.667-4.776,10.667-10.667c0-5.891-4.776-10.667-10.667-10.667H309.483z"/>
	<path style="fill:#009688;" d="M266.816,234.635h-0.213c-5.891,0-10.667,4.776-10.667,10.667c0,5.891,4.776,10.667,10.667,10.667
		c5.891,0,10.667-4.776,10.667-10.667c0-5.891-4.776-10.667-10.667-10.667H266.816z"/>
	<path style="fill:#009688;" d="M224.149,234.635h-0.213c-5.891,0-10.667,4.776-10.667,10.667c0,5.891,4.776,10.667,10.667,10.667
		s10.667-4.776,10.667-10.667c0-5.891-4.776-10.667-10.667-10.667H224.149z"/>
	<path style="fill:#009688;" d="M437.483,191.968h-0.213c-5.891,0-10.667,4.776-10.667,10.667c0,5.891,4.776,10.667,10.667,10.667
		c5.891,0,10.667-4.776,10.667-10.667c0-5.891-4.776-10.667-10.667-10.667H437.483z"/>
	<path style="fill:#009688;" d="M394.816,191.968h-0.213c-5.891,0-10.667,4.776-10.667,10.667c0,5.891,4.776,10.667,10.667,10.667
		c5.891,0,10.667-4.776,10.667-10.667c0-5.891-4.776-10.667-10.667-10.667H394.816z"/>
	<path style="fill:#009688;" d="M352.149,191.968h-0.213c-5.891,0-10.667,4.776-10.667,10.667c0,5.891,4.776,10.667,10.667,10.667
		s10.667-4.776,10.667-10.667c0-5.891-4.776-10.667-10.667-10.667H352.149z"/>
	<path style="fill:#009688;" d="M309.483,191.968h-0.213c-5.891,0-10.667,4.776-10.667,10.667c0,5.891,4.776,10.667,10.667,10.667
		c5.891,0,10.667-4.776,10.667-10.667c0-5.891-4.776-10.667-10.667-10.667H309.483z"/>
	<path style="fill:#009688;" d="M266.816,191.968h-0.213c-5.891,0-10.667,4.776-10.667,10.667c0,5.891,4.776,10.667,10.667,10.667
		c5.891,0,10.667-4.776,10.667-10.667c0-5.891-4.776-10.667-10.667-10.667H266.816z"/>
	<path style="fill:#009688;" d="M394.816,149.301h-0.213c-5.891,0-10.667,4.776-10.667,10.667s4.776,10.667,10.667,10.667
		c5.891,0,10.667-4.776,10.667-10.667s-4.776-10.667-10.667-10.667H394.816z"/>
	<path style="fill:#009688;" d="M352.149,149.301h-0.213c-5.891,0-10.667,4.776-10.667,10.667s4.776,10.667,10.667,10.667
		s10.667-4.776,10.667-10.667s-4.776-10.667-10.667-10.667H352.149z"/>
	<path style="fill:#009688;" d="M309.483,149.301h-0.213c-5.891,0-10.667,4.776-10.667,10.667s4.776,10.667,10.667,10.667
		c5.891,0,10.667-4.776,10.667-10.667s-4.776-10.667-10.667-10.667H309.483z"/>
	<path style="fill:#009688;" d="M266.816,149.301h-0.213c-5.891,0-10.667,4.776-10.667,10.667s4.776,10.667,10.667,10.667
		c5.891,0,10.667-4.776,10.667-10.667s-4.776-10.667-10.667-10.667H266.816z"/>
	<path style="fill:#009688;" d="M352.149,106.635h-0.213c-5.891,0-10.667,4.776-10.667,10.667c0,5.891,4.776,10.667,10.667,10.667
		s10.667-4.776,10.667-10.667c0-5.891-4.776-10.667-10.667-10.667H352.149z"/>
	<path style="fill:#009688;" d="M309.483,106.635h-0.213c-5.891,0-10.667,4.776-10.667,10.667c0,5.891,4.776,10.667,10.667,10.667
		c5.891,0,10.667-4.776,10.667-10.667c0-5.891-4.776-10.667-10.667-10.667H309.483z"/>
	<path style="fill:#009688;" d="M266.816,106.635h-0.213c-5.891,0-10.667,4.776-10.667,10.667c0,5.891,4.776,10.667,10.667,10.667
		c5.891,0,10.667-4.776,10.667-10.667c0-5.891-4.776-10.667-10.667-10.667H266.816z"/>
	<path style="fill:#009688;" d="M309.483,63.968h-0.213c-5.891,0-10.667,4.776-10.667,10.667c0,5.891,4.776,10.667,10.667,10.667
		c5.891,0,10.667-4.776,10.667-10.667c0-5.891-4.776-10.667-10.667-10.667H309.483z"/>
	<path style="fill:#009688;" d="M266.816,63.968h-0.213c-5.891,0-10.667,4.776-10.667,10.667c0,5.891,4.776,10.667,10.667,10.667
		c5.891,0,10.667-4.776,10.667-10.667c0-5.891-4.776-10.667-10.667-10.667H266.816z"/>
	<path style="fill:#009688;" d="M266.816,21.301h-0.213c-5.891,0-10.667,4.776-10.667,10.667s4.776,10.667,10.667,10.667
		c5.891,0,10.667-4.776,10.667-10.667s-4.776-10.667-10.667-10.667H266.816z"/>
	<path style="fill:#009688;" d="M437.483,277.301h-0.213c-5.891,0-10.667,4.776-10.667,10.667c0,5.891,4.776,10.667,10.667,10.667
		c5.891,0,10.667-4.776,10.667-10.667c0-5.891-4.776-10.667-10.667-10.667H437.483z"/>
	<path style="fill:#009688;" d="M394.816,277.301h-0.213c-5.891,0-10.667,4.776-10.667,10.667c0,5.891,4.776,10.667,10.667,10.667
		c5.891,0,10.667-4.776,10.667-10.667c0-5.891-4.776-10.667-10.667-10.667H394.816z"/>
	<path style="fill:#009688;" d="M352.149,277.301h-0.213c-5.891,0-10.667,4.776-10.667,10.667c0,5.891,4.776,10.667,10.667,10.667
		s10.667-4.776,10.667-10.667c0-5.891-4.776-10.667-10.667-10.667H352.149z"/>
	<path style="fill:#009688;" d="M309.483,277.301h-0.213c-5.891,0-10.667,4.776-10.667,10.667c0,5.891,4.776,10.667,10.667,10.667
		c5.891,0,10.667-4.776,10.667-10.667c0-5.891-4.776-10.667-10.667-10.667H309.483z"/>
	<path style="fill:#009688;" d="M266.816,277.301h-0.213c-5.891,0-10.667,4.776-10.667,10.667c0,5.891,4.776,10.667,10.667,10.667
		c5.891,0,10.667-4.776,10.667-10.667c0-5.891-4.776-10.667-10.667-10.667H266.816z"/>
	<path style="fill:#009688;" d="M394.816,319.968h-0.213c-5.891,0-10.667,4.776-10.667,10.667s4.776,10.667,10.667,10.667
		c5.891,0,10.667-4.776,10.667-10.667s-4.776-10.667-10.667-10.667H394.816z"/>
	<path style="fill:#009688;" d="M352.149,319.968h-0.213c-5.891,0-10.667,4.776-10.667,10.667s4.776,10.667,10.667,10.667
		s10.667-4.776,10.667-10.667s-4.776-10.667-10.667-10.667H352.149z"/>
	<path style="fill:#009688;" d="M309.483,319.968h-0.213c-5.891,0-10.667,4.776-10.667,10.667s4.776,10.667,10.667,10.667
		c5.891,0,10.667-4.776,10.667-10.667s-4.776-10.667-10.667-10.667H309.483z"/>
	<path style="fill:#009688;" d="M266.816,319.968h-0.213c-5.891,0-10.667,4.776-10.667,10.667s4.776,10.667,10.667,10.667
		c5.891,0,10.667-4.776,10.667-10.667s-4.776-10.667-10.667-10.667H266.816z"/>
	<path style="fill:#009688;" d="M352.149,362.635h-0.213c-5.891,0-10.667,4.776-10.667,10.667c0,5.891,4.776,10.667,10.667,10.667
		s10.667-4.776,10.667-10.667c0-5.891-4.776-10.667-10.667-10.667H352.149z"/>
	<path style="fill:#009688;" d="M309.483,362.635h-0.213c-5.891,0-10.667,4.776-10.667,10.667c0,5.891,4.776,10.667,10.667,10.667
		c5.891,0,10.667-4.776,10.667-10.667c0-5.891-4.776-10.667-10.667-10.667H309.483z"/>
	<path style="fill:#009688;" d="M266.816,362.635h-0.213c-5.891,0-10.667,4.776-10.667,10.667c0,5.891,4.776,10.667,10.667,10.667
		c5.891,0,10.667-4.776,10.667-10.667c0-5.891-4.776-10.667-10.667-10.667H266.816z"/>
	<path style="fill:#009688;" d="M309.483,405.301h-0.213c-5.891,0-10.667,4.776-10.667,10.667c0,5.891,4.776,10.667,10.667,10.667
		c5.891,0,10.667-4.776,10.667-10.667c0-5.891-4.776-10.667-10.667-10.667H309.483z"/>
	<path style="fill:#009688;" d="M266.816,405.301h-0.213c-5.891,0-10.667,4.776-10.667,10.667c0,5.891,4.776,10.667,10.667,10.667
		c5.891,0,10.667-4.776,10.667-10.667c0-5.891-4.776-10.667-10.667-10.667H266.816z"/>
	<path style="fill:#009688;" d="M266.816,447.968h-0.213c-5.891,0-10.667,4.776-10.667,10.667s4.776,10.667,10.667,10.667
		c5.891,0,10.667-4.776,10.667-10.667s-4.776-10.667-10.667-10.667H266.816z"/>
	<path style="fill:#009688;" d="M181.483,234.635h-0.213c-5.891,0-10.667,4.776-10.667,10.667c0,5.891,4.776,10.667,10.667,10.667
		s10.667-4.776,10.667-10.667c0-5.891-4.776-10.667-10.667-10.667H181.483z"/>
	<path style="fill:#009688;" d="M138.816,234.635h-0.213c-5.891,0-10.667,4.776-10.667,10.667c0,5.891,4.776,10.667,10.667,10.667
		c5.891,0,10.667-4.776,10.667-10.667c0-5.891-4.776-10.667-10.667-10.667H138.816z"/>
	<path style="fill:#009688;" d="M96.149,234.635h-0.213c-5.891,0-10.667,4.776-10.667,10.667c0,5.891,4.776,10.667,10.667,10.667
		c5.891,0,10.667-4.776,10.667-10.667c0-5.891-4.776-10.667-10.667-10.667H96.149z"/>
	<path style="fill:#009688;" d="M53.483,234.635h-0.213c-5.891,0-10.667,4.776-10.667,10.667c0,5.891,4.776,10.667,10.667,10.667
		s10.667-4.776,10.667-10.667c0-5.891-4.776-10.667-10.667-10.667H53.483z"/>
	<path style="fill:#009688;" d="M10.816,234.635h-0.149C4.776,234.635,0,239.41,0,245.301c0,5.891,4.776,10.667,10.667,10.667
		s10.667-4.776,10.667-10.667c0-5.891-4.776-10.667-10.667-10.667H10.816z"/>
	<path style="fill:#009688;" d="M224.149,277.301h-0.213c-5.891,0-10.667,4.776-10.667,10.667c0,5.891,4.776,10.667,10.667,10.667
		s10.667-4.776,10.667-10.667c0-5.891-4.776-10.667-10.667-10.667H224.149z"/>
	<path style="fill:#009688;" d="M181.483,277.301h-0.213c-5.891,0-10.667,4.776-10.667,10.667c0,5.891,4.776,10.667,10.667,10.667
		s10.667-4.776,10.667-10.667c0-5.891-4.776-10.667-10.667-10.667H181.483z"/>
	<path style="fill:#009688;" d="M138.816,277.301h-0.213c-5.891,0-10.667,4.776-10.667,10.667c0,5.891,4.776,10.667,10.667,10.667
		c5.891,0,10.667-4.776,10.667-10.667c0-5.891-4.776-10.667-10.667-10.667H138.816z"/>
	<path style="fill:#009688;" d="M96.149,277.301h-0.213c-5.891,0-10.667,4.776-10.667,10.667c0,5.891,4.776,10.667,10.667,10.667
		c5.891,0,10.667-4.776,10.667-10.667c0-5.891-4.776-10.667-10.667-10.667H96.149z"/>
	<path style="fill:#009688;" d="M53.483,277.301h-0.213c-5.891,0-10.667,4.776-10.667,10.667c0,5.891,4.776,10.667,10.667,10.667
		s10.667-4.776,10.667-10.667c0-5.891-4.776-10.667-10.667-10.667H53.483z"/>
	<path style="fill:#009688;" d="M10.816,277.301h-0.149C4.776,277.301,0,282.077,0,287.968c0,5.891,4.776,10.667,10.667,10.667
		s10.667-4.776,10.667-10.667c0-5.891-4.776-10.667-10.667-10.667H10.816z"/>
	<path style="fill:#009688;" d="M224.149,191.968h-0.213c-5.891,0-10.667,4.776-10.667,10.667c0,5.891,4.776,10.667,10.667,10.667
		s10.667-4.776,10.667-10.667c0-5.891-4.776-10.667-10.667-10.667H224.149z"/>
	<path style="fill:#009688;" d="M181.483,191.968h-0.213c-5.891,0-10.667,4.776-10.667,10.667
		c0.001,5.891,4.778,10.666,10.669,10.665c5.891-0.001,10.666-4.778,10.665-10.669C191.935,196.823,187.289,192.084,181.483,191.968
		z"/>
	<path style="fill:#009688;" d="M138.816,191.968h-0.213c-5.891,0-10.667,4.776-10.667,10.667
		c0.001,5.891,4.778,10.666,10.669,10.665c5.891-0.001,10.666-4.778,10.665-10.669C149.268,196.823,144.622,192.084,138.816,191.968
		z"/>
	<path style="fill:#009688;" d="M96.149,191.968h-0.213c-5.891,0-10.667,4.776-10.667,10.667
		c0.001,5.891,4.778,10.666,10.669,10.665c5.891-0.001,10.666-4.778,10.665-10.669C106.602,196.823,101.955,192.084,96.149,191.968z
		"/>
	<path style="fill:#009688;" d="M53.483,191.968h-0.213c-5.891,0-10.667,4.776-10.667,10.667
		c0.001,5.891,4.778,10.666,10.669,10.665c5.891-0.001,10.666-4.778,10.665-10.669C63.935,196.823,59.289,192.084,53.483,191.968z"
		/>
	<path style="fill:#009688;" d="M10.816,191.968h-0.149C4.776,191.968,0,196.744,0,202.635c0.001,5.891,4.777,10.666,10.668,10.666
		s10.666-4.777,10.666-10.668C21.333,196.8,16.648,192.05,10.816,191.968z"/>
</g>
<g>
</g>
<g>
</g>
<g>
</g>
<g>
</g>
<g>
</g>
<g>
</g>
<g>
</g>
<g>
</g>
<g>
</g>
<g>
</g>
<g>
</g>
<g>
</g>
<g>
</g>
<g>
</g>
<g>
</g>
</svg>
