<?xml version="1.0" encoding="iso-8859-1"?>
<!-- Generator: Adobe Illustrator 19.0.0, SVG Export Plug-In . SVG Version: 6.00 Build 0)  -->
<svg version="1.1" id="Capa_1" xmlns="http://www.w3.org/2000/svg" xmlns:xlink="http://www.w3.org/1999/xlink" x="0px" y="0px"
	 viewBox="0 0 490.667 490.667" style="enable-background:new 0 0 490.667 490.667;" xml:space="preserve">
<g>
	<path style="fill:#009688;" d="M231.629,2.994c-4.237-4.093-10.99-3.975-15.083,0.262c-3.992,4.134-3.992,10.687,0,14.82
		l227.115,227.136L216.525,472.328c-4.237,4.093-4.355,10.845-0.262,15.083c4.093,4.237,10.845,4.354,15.083,0.262
		c0.089-0.086,0.176-0.173,0.262-0.262l234.667-234.667c4.164-4.165,4.164-10.917,0-15.083L231.629,2.994z"/>
	<path style="fill:#009688;" d="M274.296,237.661L39.629,2.994c-4.237-4.093-10.99-3.975-15.083,0.262
		c-3.992,4.134-3.992,10.687,0,14.821l227.115,227.136L24.525,472.328c-4.237,4.093-4.354,10.845-0.262,15.083
		s10.845,4.354,15.083,0.262c0.089-0.086,0.176-0.173,0.262-0.262l234.667-234.667C278.444,248.584,278.454,241.832,274.296,237.661
		z"/>
</g>
<g>
</g>
<g>
</g>
<g>
</g>
<g>
</g>
<g>
</g>
<g>
</g>
<g>
</g>
<g>
</g>
<g>
</g>
<g>
</g>
<g>
</g>
<g>
</g>
<g>
</g>
<g>
</g>
<g>
</g>
</svg>
