<?xml version="1.0" encoding="iso-8859-1"?>
<!-- Generator: Adobe Illustrator 19.0.0, SVG Export Plug-In . SVG Version: 6.00 Build 0)  -->
<svg version="1.1" id="Capa_1" xmlns="http://www.w3.org/2000/svg" xmlns:xlink="http://www.w3.org/1999/xlink" x="0px" y="0px"
	 viewBox="0 0 490.923 490.923" style="enable-background:new 0 0 490.923 490.923;" xml:space="preserve">
<path style="fill:#2196F3;" d="M245.461,0C109.897,0,0,109.897,0,245.461s109.897,245.461,245.461,245.461
	s245.461-109.897,245.461-245.461c0-0.007,0-0.014,0-0.021C490.77,109.942,380.959,0.141,245.461,0z"/>
<g>
	<path style="fill:#FAFAFA;" d="M267.029,362.773c-5.891,0.011-10.675-4.757-10.686-10.648c-0.005-2.84,1.123-5.565,3.134-7.571
		l99.051-99.008l-99.285-99.221c-4.092-4.237-3.975-10.99,0.262-15.083c4.134-3.992,10.687-3.992,14.82,0L381.12,238.016
		c4.164,4.165,4.164,10.917,0,15.083l-106.667,106.56C272.48,361.627,269.816,362.745,267.029,362.773z"/>
	<path style="fill:#FAFAFA;" d="M138.923,362.645c-5.891,0.011-10.675-4.757-10.686-10.648c-0.005-2.84,1.123-5.565,3.134-7.571
		l99.157-98.987l-99.285-99.115c-4.092-4.237-3.975-10.99,0.262-15.083c4.134-3.992,10.687-3.992,14.82,0L253.12,238.016
		c4.171,4.16,4.179,10.914,0.019,15.085c-0.006,0.006-0.013,0.013-0.019,0.019L146.453,359.531
		C144.454,361.525,141.746,362.645,138.923,362.645z"/>
</g>
<g>
</g>
<g>
</g>
<g>
</g>
<g>
</g>
<g>
</g>
<g>
</g>
<g>
</g>
<g>
</g>
<g>
</g>
<g>
</g>
<g>
</g>
<g>
</g>
<g>
</g>
<g>
</g>
<g>
</g>
</svg>
