<?xml version="1.0" encoding="iso-8859-1"?>
<!-- Generator: Adobe Illustrator 19.0.0, SVG Export Plug-In . SVG Version: 6.00 Build 0)  -->
<svg version="1.1" id="Capa_1" xmlns="http://www.w3.org/2000/svg" xmlns:xlink="http://www.w3.org/1999/xlink" x="0px" y="0px"
	 viewBox="0 0 405.333 405.333" style="enable-background:new 0 0 405.333 405.333;" xml:space="preserve">
<g>
	<path style="fill:#00BCD4;" d="M10.72,0h-0.171C4.725,0.093,0.053,4.842,0.053,10.667c0,5.891,4.776,10.667,10.667,10.667
		s10.667-4.776,10.667-10.667S16.611,0,10.72,0z"/>
	<path style="fill:#00BCD4;" d="M53.387,0h-0.171C47.392,0.093,42.719,4.842,42.72,10.667c0,5.891,4.776,10.667,10.667,10.667
		s10.667-4.776,10.667-10.667S59.278,0,53.387,0z"/>
	<path style="fill:#00BCD4;" d="M96.053,0h-0.171c-5.824,0.093-10.497,4.842-10.496,10.667c0,5.891,4.776,10.667,10.667,10.667
		c5.891,0,10.667-4.776,10.667-10.667S101.944,0,96.053,0z"/>
	<path style="fill:#00BCD4;" d="M138.72,0h-0.171c-5.824,0.093-10.497,4.842-10.496,10.667c0,5.891,4.776,10.667,10.667,10.667
		c5.891,0,10.667-4.776,10.667-10.667S144.611,0,138.72,0z"/>
	<path style="fill:#00BCD4;" d="M181.387,0h-0.235c-5.799,0.128-10.433,4.866-10.432,10.667c0,5.891,4.776,10.667,10.667,10.667
		c5.891,0,10.667-4.776,10.667-10.667S187.278,0,181.387,0z"/>
	<path style="fill:#00BCD4;" d="M224.053,0h-0.235c-5.799,0.128-10.433,4.866-10.432,10.667c0,5.891,4.776,10.667,10.667,10.667
		s10.667-4.776,10.667-10.667S229.944,0,224.053,0z"/>
	<path style="fill:#00BCD4;" d="M266.72,0h-0.235c-5.799,0.128-10.433,4.866-10.432,10.667c0,5.891,4.776,10.667,10.667,10.667
		s10.667-4.776,10.667-10.667S272.611,0,266.72,0z"/>
	<path style="fill:#00BCD4;" d="M309.387,0h-0.235c-5.799,0.128-10.433,4.866-10.432,10.667c0,5.891,4.776,10.667,10.667,10.667
		c5.891,0,10.667-4.776,10.667-10.667S315.278,0,309.387,0z"/>
	<path style="fill:#00BCD4;" d="M10.72,42.667h-0.171C4.725,42.76,0.053,47.508,0.053,53.333C0.053,59.224,4.829,64,10.72,64
		s10.667-4.776,10.667-10.667S16.611,42.667,10.72,42.667z"/>
	<path style="fill:#00BCD4;" d="M53.387,42.667h-0.171c-5.824,0.093-10.497,4.842-10.496,10.667C42.72,59.224,47.496,64,53.387,64
		s10.667-4.776,10.667-10.667S59.278,42.667,53.387,42.667z"/>
	<path style="fill:#00BCD4;" d="M96.053,42.667h-0.171c-5.824,0.093-10.497,4.842-10.496,10.667C85.387,59.224,90.162,64,96.053,64
		c5.891,0,10.667-4.776,10.667-10.667S101.944,42.667,96.053,42.667z"/>
	<path style="fill:#00BCD4;" d="M138.72,42.667h-0.171c-5.824,0.093-10.497,4.842-10.496,10.667c0,5.891,4.776,10.667,10.667,10.667
		c5.891,0,10.667-4.776,10.667-10.667S144.611,42.667,138.72,42.667z"/>
	<path style="fill:#00BCD4;" d="M181.387,42.667h-0.235c-5.799,0.128-10.433,4.866-10.432,10.667
		c0,5.891,4.776,10.667,10.667,10.667c5.891,0,10.667-4.776,10.667-10.667S187.278,42.667,181.387,42.667z"/>
	<path style="fill:#00BCD4;" d="M224.053,42.667h-0.235c-5.799,0.128-10.433,4.866-10.432,10.667
		c0,5.891,4.776,10.667,10.667,10.667s10.667-4.776,10.667-10.667S229.944,42.667,224.053,42.667z"/>
	<path style="fill:#00BCD4;" d="M266.72,42.667h-0.235c-5.799,0.128-10.433,4.866-10.432,10.667c0,5.891,4.776,10.667,10.667,10.667
		s10.667-4.776,10.667-10.667S272.611,42.667,266.72,42.667z"/>
	<path style="fill:#00BCD4;" d="M10.72,85.333h-0.171C4.725,85.427,0.053,90.175,0.053,96c0,5.891,4.776,10.667,10.667,10.667
		S21.387,101.891,21.387,96C21.387,90.109,16.611,85.333,10.72,85.333z"/>
	<path style="fill:#00BCD4;" d="M53.387,85.333h-0.171C47.392,85.427,42.719,90.175,42.72,96c0,5.891,4.776,10.667,10.667,10.667
		S64.053,101.891,64.053,96C64.053,90.109,59.278,85.333,53.387,85.333z"/>
	<path style="fill:#00BCD4;" d="M96.053,85.333h-0.171C90.058,85.427,85.386,90.175,85.387,96c0,5.891,4.776,10.667,10.667,10.667
		c5.891,0,10.667-4.776,10.667-10.667C106.72,90.109,101.944,85.333,96.053,85.333z"/>
	<path style="fill:#00BCD4;" d="M138.72,85.333h-0.171c-5.824,0.093-10.497,4.842-10.496,10.667c0,5.891,4.776,10.667,10.667,10.667
		c5.891,0,10.667-4.776,10.667-10.667C149.387,90.109,144.611,85.333,138.72,85.333z"/>
	<path style="fill:#00BCD4;" d="M181.387,85.333h-0.235c-5.799,0.128-10.433,4.866-10.432,10.667
		c0,5.891,4.776,10.667,10.667,10.667c5.891,0,10.667-4.776,10.667-10.667C192.053,90.109,187.278,85.333,181.387,85.333z"/>
	<path style="fill:#00BCD4;" d="M224.053,85.333h-0.235c-5.799,0.128-10.433,4.866-10.432,10.667
		c0,5.891,4.776,10.667,10.667,10.667S234.72,101.891,234.72,96C234.72,90.109,229.944,85.333,224.053,85.333z"/>
	<path style="fill:#00BCD4;" d="M10.72,128h-0.171c-5.824,0.093-10.497,4.842-10.496,10.667c0,5.891,4.776,10.667,10.667,10.667
		s10.667-4.776,10.667-10.667S16.611,128,10.72,128z"/>
	<path style="fill:#00BCD4;" d="M53.387,128h-0.171c-5.824,0.093-10.497,4.842-10.496,10.667c0,5.891,4.776,10.667,10.667,10.667
		s10.667-4.776,10.667-10.667S59.278,128,53.387,128z"/>
	<path style="fill:#00BCD4;" d="M96.053,128h-0.171c-5.824,0.093-10.497,4.842-10.496,10.667c0,5.891,4.776,10.667,10.667,10.667
		c5.891,0,10.667-4.776,10.667-10.667S101.944,128,96.053,128z"/>
	<path style="fill:#00BCD4;" d="M138.72,128h-0.171c-5.824,0.093-10.497,4.842-10.496,10.667c0,5.891,4.776,10.667,10.667,10.667
		c5.891,0,10.667-4.776,10.667-10.667S144.611,128,138.72,128z"/>
	<path style="fill:#00BCD4;" d="M181.387,128h-0.235c-5.799,0.128-10.433,4.866-10.432,10.667c0,5.891,4.776,10.667,10.667,10.667
		c5.891,0,10.667-4.776,10.667-10.667S187.278,128,181.387,128z"/>
	<path style="fill:#00BCD4;" d="M10.72,170.667h-0.171c-5.824,0.093-10.497,4.842-10.496,10.667C0.053,187.224,4.829,192,10.72,192
		s10.667-4.776,10.667-10.667C21.387,175.442,16.611,170.667,10.72,170.667z"/>
	<path style="fill:#00BCD4;" d="M53.387,170.667h-0.171c-5.824,0.093-10.497,4.842-10.496,10.667
		c0,5.891,4.776,10.667,10.667,10.667s10.667-4.776,10.667-10.667C64.053,175.442,59.278,170.667,53.387,170.667z"/>
	<path style="fill:#00BCD4;" d="M96.053,170.667h-0.171c-5.824,0.093-10.497,4.842-10.496,10.667
		c0,5.891,4.776,10.667,10.667,10.667c5.891,0,10.667-4.776,10.667-10.667C106.72,175.442,101.944,170.667,96.053,170.667z"/>
	<path style="fill:#00BCD4;" d="M138.72,170.667h-0.171c-5.824,0.093-10.497,4.842-10.496,10.667
		c0,5.891,4.776,10.667,10.667,10.667c5.891,0,10.667-4.776,10.667-10.667C149.387,175.442,144.611,170.667,138.72,170.667z"/>
	<path style="fill:#00BCD4;" d="M10.72,213.333h-0.171C4.725,213.427,0.053,218.175,0.053,224c0,5.891,4.776,10.667,10.667,10.667
		S21.387,229.891,21.387,224C21.387,218.109,16.611,213.333,10.72,213.333z"/>
	<path style="fill:#00BCD4;" d="M53.387,213.333h-0.171c-5.824,0.093-10.497,4.842-10.496,10.667
		c0,5.891,4.776,10.667,10.667,10.667S64.053,229.891,64.053,224C64.053,218.109,59.278,213.333,53.387,213.333z"/>
	<path style="fill:#00BCD4;" d="M96.053,213.333h-0.171c-5.824,0.093-10.497,4.842-10.496,10.667
		c0,5.891,4.776,10.667,10.667,10.667c5.891,0,10.667-4.776,10.667-10.667C106.72,218.109,101.944,213.333,96.053,213.333z"/>
	<path style="fill:#00BCD4;" d="M181.387,170.667h-0.235c-5.841,0.07-10.539,4.825-10.539,10.667
		c0,5.891,4.776,10.667,10.667,10.667c5.891,0,10.667-4.776,10.667-10.667c0-5.891-4.776-10.667-10.667-10.667H181.387z"/>
	<path style="fill:#00BCD4;" d="M224.053,170.667h-0.235c-5.841,0.07-10.539,4.825-10.539,10.667
		c0,5.891,4.776,10.667,10.667,10.667c5.891,0,10.667-4.776,10.667-10.667c0-5.891-4.776-10.667-10.667-10.667H224.053z"/>
	<path style="fill:#00BCD4;" d="M181.387,213.333h-0.235c-5.841,0.07-10.539,4.825-10.539,10.667
		c0,5.891,4.776,10.667,10.667,10.667c5.891,0,10.667-4.776,10.667-10.667c0-5.891-4.776-10.667-10.667-10.667H181.387z"/>
	<path style="fill:#00BCD4;" d="M224.053,213.333h-0.235c-5.841,0.07-10.539,4.825-10.539,10.667
		c0,5.891,4.776,10.667,10.667,10.667c5.891,0,10.667-4.776,10.667-10.667c0-5.891-4.776-10.667-10.667-10.667H224.053z"/>
	<path style="fill:#00BCD4;" d="M266.72,213.333h-0.235c-5.841,0.07-10.539,4.825-10.539,10.667c0,5.891,4.776,10.667,10.667,10.667
		c5.891,0,10.667-4.776,10.667-10.667c0-5.891-4.776-10.667-10.667-10.667H266.72z"/>
	<path style="fill:#00BCD4;" d="M224.053,256h-0.235c-5.841,0.07-10.539,4.825-10.539,10.667c0,5.891,4.776,10.667,10.667,10.667
		c5.891,0,10.667-4.776,10.667-10.667c0-5.891-4.776-10.667-10.667-10.667H224.053z"/>
	<path style="fill:#00BCD4;" d="M266.72,256h-0.235c-5.841,0.07-10.539,4.825-10.539,10.667c0,5.891,4.776,10.667,10.667,10.667
		c5.891,0,10.667-4.776,10.667-10.667c0-5.891-4.776-10.667-10.667-10.667H266.72z"/>
	<path style="fill:#00BCD4;" d="M309.387,256h-0.235c-5.841,0.07-10.539,4.825-10.539,10.667c0,5.891,4.776,10.667,10.667,10.667
		c5.891,0,10.667-4.776,10.667-10.667c0-5.891-4.776-10.667-10.667-10.667H309.387z"/>
	<path style="fill:#00BCD4;" d="M266.72,298.667h-0.235c-5.841,0.07-10.539,4.825-10.539,10.667c0,5.891,4.776,10.667,10.667,10.667
		c5.891,0,10.667-4.776,10.667-10.667s-4.776-10.667-10.667-10.667H266.72z"/>
	<path style="fill:#00BCD4;" d="M309.387,298.667h-0.235c-5.841,0.07-10.539,4.825-10.539,10.667
		c0,5.891,4.776,10.667,10.667,10.667c5.891,0,10.667-4.776,10.667-10.667s-4.776-10.667-10.667-10.667H309.387z"/>
	<path style="fill:#00BCD4;" d="M352.053,298.667h-0.235c-5.841,0.07-10.539,4.825-10.539,10.667
		c0,5.891,4.776,10.667,10.667,10.667s10.667-4.776,10.667-10.667s-4.776-10.667-10.667-10.667H352.053z"/>
	<path style="fill:#00BCD4;" d="M309.387,341.333h-0.235c-5.841,0.07-10.539,4.825-10.539,10.667
		c0,5.891,4.776,10.667,10.667,10.667c5.891,0,10.667-4.776,10.667-10.667c0-5.891-4.776-10.667-10.667-10.667H309.387z"/>
	<path style="fill:#00BCD4;" d="M352.053,341.333h-0.235c-5.841,0.07-10.539,4.825-10.539,10.667
		c0,5.891,4.776,10.667,10.667,10.667s10.667-4.776,10.667-10.667c0-5.891-4.776-10.667-10.667-10.667H352.053z"/>
	<path style="fill:#00BCD4;" d="M394.72,341.333h-0.235c-5.841,0.07-10.539,4.825-10.539,10.667c0,5.891,4.776,10.667,10.667,10.667
		c5.891,0,10.667-4.776,10.667-10.667c0-5.891-4.776-10.667-10.667-10.667H394.72z"/>
	<path style="fill:#00BCD4;" d="M352.053,384h-0.235c-5.841,0.07-10.539,4.825-10.539,10.667c0,5.891,4.776,10.667,10.667,10.667
		s10.667-4.776,10.667-10.667c0-5.891-4.776-10.667-10.667-10.667H352.053z"/>
	<path style="fill:#00BCD4;" d="M10.72,256h-0.171c-5.824,0.093-10.497,4.842-10.496,10.667c0,5.891,4.776,10.667,10.667,10.667
		s10.667-4.776,10.667-10.667C21.387,260.776,16.611,256,10.72,256z"/>
	<path style="fill:#00BCD4;" d="M53.387,256h-0.171c-5.824,0.093-10.497,4.842-10.496,10.667c0,5.891,4.776,10.667,10.667,10.667
		s10.667-4.776,10.667-10.667C64.053,260.776,59.278,256,53.387,256z"/>
	<path style="fill:#00BCD4;" d="M10.72,298.667h-0.171c-5.824,0.093-10.497,4.842-10.496,10.667C0.053,315.224,4.829,320,10.72,320
		s10.667-4.776,10.667-10.667S16.611,298.667,10.72,298.667z"/>
</g>
<g>
</g>
<g>
</g>
<g>
</g>
<g>
</g>
<g>
</g>
<g>
</g>
<g>
</g>
<g>
</g>
<g>
</g>
<g>
</g>
<g>
</g>
<g>
</g>
<g>
</g>
<g>
</g>
<g>
</g>
</svg>
