<?xml version="1.0" encoding="iso-8859-1"?>
<!-- Generator: Adobe Illustrator 19.0.0, SVG Export Plug-In . SVG Version: 6.00 Build 0)  -->
<svg version="1.1" id="Capa_1" xmlns="http://www.w3.org/2000/svg" xmlns:xlink="http://www.w3.org/1999/xlink" x="0px" y="0px"
	 viewBox="0 0 490.816 490.816" style="enable-background:new 0 0 490.816 490.816;" xml:space="preserve">
<g>
	<path style="fill:#009688;" d="M10.816,234.741h-0.149C4.776,234.741,0,239.517,0,245.408c0,5.891,4.776,10.667,10.667,10.667
		s10.667-4.776,10.667-10.667c0-5.891-4.776-10.667-10.667-10.667H10.816z"/>
	<path style="fill:#009688;" d="M53.483,234.741h-0.213c-5.891,0-10.667,4.776-10.667,10.667c0,5.891,4.776,10.667,10.667,10.667
		s10.667-4.776,10.667-10.667c0-5.891-4.776-10.667-10.667-10.667H53.483z"/>
	<path style="fill:#009688;" d="M96.149,234.741h-0.213c-5.891,0-10.667,4.776-10.667,10.667c0,5.891,4.776,10.667,10.667,10.667
		c5.891,0,10.667-4.776,10.667-10.667c0-5.891-4.776-10.667-10.667-10.667H96.149z"/>
	<path style="fill:#009688;" d="M138.816,234.741h-0.213c-5.891,0-10.667,4.776-10.667,10.667c0,5.891,4.776,10.667,10.667,10.667
		c5.891,0,10.667-4.776,10.667-10.667c0-5.891-4.776-10.667-10.667-10.667H138.816z"/>
	<path style="fill:#009688;" d="M181.483,234.741h-0.213c-5.891,0-10.667,4.776-10.667,10.667c0,5.891,4.776,10.667,10.667,10.667
		s10.667-4.776,10.667-10.667c0-5.891-4.776-10.667-10.667-10.667H181.483z"/>
	<path style="fill:#009688;" d="M224.149,234.741h-0.213c-5.891,0-10.667,4.776-10.667,10.667c0,5.891,4.776,10.667,10.667,10.667
		s10.667-4.776,10.667-10.667c0-5.891-4.776-10.667-10.667-10.667H224.149z"/>
	<path style="fill:#009688;" d="M266.816,234.741h-0.213c-5.891,0-10.667,4.776-10.667,10.667c0,5.891,4.776,10.667,10.667,10.667
		c5.891,0,10.667-4.776,10.667-10.667c0-5.891-4.776-10.667-10.667-10.667H266.816z"/>
	<path style="fill:#009688;" d="M53.483,277.408h-0.213c-5.891,0-10.667,4.776-10.667,10.667s4.776,10.667,10.667,10.667
		s10.667-4.776,10.667-10.667s-4.776-10.667-10.667-10.667H53.483z"/>
	<path style="fill:#009688;" d="M96.149,277.408h-0.213c-5.891,0-10.667,4.776-10.667,10.667s4.776,10.667,10.667,10.667
		c5.891,0,10.667-4.776,10.667-10.667s-4.776-10.667-10.667-10.667H96.149z"/>
	<path style="fill:#009688;" d="M138.816,277.408h-0.213c-5.891,0-10.667,4.776-10.667,10.667s4.776,10.667,10.667,10.667
		c5.891,0,10.667-4.776,10.667-10.667s-4.776-10.667-10.667-10.667H138.816z"/>
	<path style="fill:#009688;" d="M181.483,277.408h-0.213c-5.891,0-10.667,4.776-10.667,10.667s4.776,10.667,10.667,10.667
		s10.667-4.776,10.667-10.667s-4.776-10.667-10.667-10.667H181.483z"/>
	<path style="fill:#009688;" d="M224.149,277.408h-0.213c-5.891,0-10.667,4.776-10.667,10.667s4.776,10.667,10.667,10.667
		s10.667-4.776,10.667-10.667s-4.776-10.667-10.667-10.667H224.149z"/>
	<path style="fill:#009688;" d="M96.149,320.075h-0.213c-5.891,0-10.667,4.776-10.667,10.667c0,5.891,4.776,10.667,10.667,10.667
		c5.891,0,10.667-4.776,10.667-10.667c0-5.891-4.776-10.667-10.667-10.667H96.149z"/>
	<path style="fill:#009688;" d="M138.816,320.075h-0.213c-5.891,0-10.667,4.776-10.667,10.667c0,5.891,4.776,10.667,10.667,10.667
		c5.891,0,10.667-4.776,10.667-10.667c0-5.891-4.776-10.667-10.667-10.667H138.816z"/>
	<path style="fill:#009688;" d="M181.483,320.075h-0.213c-5.891,0-10.667,4.776-10.667,10.667c0,5.891,4.776,10.667,10.667,10.667
		s10.667-4.776,10.667-10.667c0-5.891-4.776-10.667-10.667-10.667H181.483z"/>
	<path style="fill:#009688;" d="M224.149,320.075h-0.213c-5.891,0-10.667,4.776-10.667,10.667c0,5.891,4.776,10.667,10.667,10.667
		s10.667-4.776,10.667-10.667c0-5.891-4.776-10.667-10.667-10.667H224.149z"/>
	<path style="fill:#009688;" d="M138.816,362.741h-0.213c-5.891,0-10.667,4.776-10.667,10.667c0,5.891,4.776,10.667,10.667,10.667
		c5.891,0,10.667-4.776,10.667-10.667c0-5.891-4.776-10.667-10.667-10.667H138.816z"/>
	<path style="fill:#009688;" d="M181.483,362.741h-0.213c-5.891,0-10.667,4.776-10.667,10.667c0,5.891,4.776,10.667,10.667,10.667
		s10.667-4.776,10.667-10.667c0-5.891-4.776-10.667-10.667-10.667H181.483z"/>
	<path style="fill:#009688;" d="M224.149,362.741h-0.213c-5.891,0-10.667,4.776-10.667,10.667c0,5.891,4.776,10.667,10.667,10.667
		s10.667-4.776,10.667-10.667c0-5.891-4.776-10.667-10.667-10.667H224.149z"/>
	<path style="fill:#009688;" d="M181.483,405.408h-0.213c-5.891,0-10.667,4.776-10.667,10.667s4.776,10.667,10.667,10.667
		s10.667-4.776,10.667-10.667s-4.776-10.667-10.667-10.667H181.483z"/>
	<path style="fill:#009688;" d="M224.149,405.408h-0.213c-5.891,0-10.667,4.776-10.667,10.667s4.776,10.667,10.667,10.667
		s10.667-4.776,10.667-10.667s-4.776-10.667-10.667-10.667H224.149z"/>
	<path style="fill:#009688;" d="M224.149,448.075h-0.213c-5.891,0-10.667,4.776-10.667,10.667c0,5.891,4.776,10.667,10.667,10.667
		s10.667-4.776,10.667-10.667c0-5.891-4.776-10.667-10.667-10.667H224.149z"/>
	<path style="fill:#009688;" d="M53.483,192.075h-0.213c-5.891,0-10.667,4.776-10.667,10.667
		c0.001,5.891,4.778,10.666,10.669,10.665s10.666-4.778,10.665-10.669C63.935,196.93,59.289,192.191,53.483,192.075z"/>
	<path style="fill:#009688;" d="M96.149,192.075h-0.213c-5.891,0-10.667,4.776-10.667,10.667
		c0.001,5.891,4.778,10.666,10.669,10.665s10.666-4.778,10.665-10.669C106.602,196.93,101.955,192.191,96.149,192.075z"/>
	<path style="fill:#009688;" d="M138.816,192.075h-0.213c-5.891,0-10.667,4.776-10.667,10.667
		c0.001,5.891,4.778,10.666,10.669,10.665s10.666-4.778,10.665-10.669C149.268,196.93,144.622,192.191,138.816,192.075z"/>
	<path style="fill:#009688;" d="M181.483,192.075h-0.213c-5.891,0-10.667,4.776-10.667,10.667
		c0.001,5.891,4.778,10.666,10.669,10.665s10.666-4.778,10.665-10.669C191.935,196.93,187.289,192.191,181.483,192.075z"/>
	<path style="fill:#009688;" d="M224.149,192.075h-0.213c-5.891,0-10.667,4.776-10.667,10.667c0,5.891,4.776,10.667,10.667,10.667
		s10.667-4.776,10.667-10.667c0-5.891-4.776-10.667-10.667-10.667H224.149z"/>
	<path style="fill:#009688;" d="M96.149,149.408h-0.213c-5.891,0-10.667,4.776-10.667,10.667
		c0.001,5.891,4.778,10.666,10.669,10.665c5.891-0.001,10.666-4.778,10.665-10.669C106.602,154.263,101.955,149.524,96.149,149.408z
		"/>
	<path style="fill:#009688;" d="M138.816,149.408h-0.213c-5.891,0-10.667,4.776-10.667,10.667
		c0.001,5.891,4.778,10.666,10.669,10.665c5.891-0.001,10.666-4.778,10.665-10.669C149.268,154.263,144.622,149.524,138.816,149.408
		z"/>
	<path style="fill:#009688;" d="M181.483,149.408h-0.213c-5.891,0-10.667,4.776-10.667,10.667
		c0.001,5.891,4.778,10.666,10.669,10.665c5.891-0.001,10.666-4.778,10.665-10.669C191.935,154.263,187.289,149.524,181.483,149.408
		z"/>
	<path style="fill:#009688;" d="M224.149,149.408h-0.213c-5.891,0-10.667,4.776-10.667,10.667c0,5.891,4.776,10.667,10.667,10.667
		s10.667-4.776,10.667-10.667c0-5.891-4.776-10.667-10.667-10.667H224.149z"/>
	<path style="fill:#009688;" d="M138.816,106.741h-0.213c-5.891,0-10.667,4.776-10.667,10.667
		c0.001,5.891,4.778,10.666,10.669,10.665c5.891-0.001,10.666-4.778,10.665-10.669C149.268,111.597,144.622,106.857,138.816,106.741
		z"/>
	<path style="fill:#009688;" d="M181.483,106.741h-0.213c-5.891,0-10.667,4.776-10.667,10.667
		c0.001,5.891,4.778,10.666,10.669,10.665c5.891-0.001,10.666-4.778,10.665-10.669C191.935,111.597,187.289,106.857,181.483,106.741
		z"/>
	<path style="fill:#009688;" d="M224.149,106.741h-0.213c-5.891,0-10.667,4.776-10.667,10.667s4.776,10.667,10.667,10.667
		s10.667-4.776,10.667-10.667s-4.776-10.667-10.667-10.667H224.149z"/>
	<path style="fill:#009688;" d="M181.483,64.075h-0.213c-5.891,0-10.667,4.776-10.667,10.667
		c0.001,5.891,4.778,10.666,10.669,10.665c5.891-0.001,10.666-4.778,10.665-10.669C191.935,68.93,187.289,64.191,181.483,64.075z"/>
	<path style="fill:#009688;" d="M224.149,64.075h-0.213c-5.891,0-10.667,4.776-10.667,10.667c0,5.891,4.776,10.667,10.667,10.667
		s10.667-4.776,10.667-10.667c0-5.891-4.776-10.667-10.667-10.667H224.149z"/>
	<path style="fill:#009688;" d="M224.149,21.408h-0.213c-5.891,0-10.667,4.776-10.667,10.667s4.776,10.667,10.667,10.667
		s10.667-4.776,10.667-10.667s-4.776-10.667-10.667-10.667H224.149z"/>
	<path style="fill:#009688;" d="M309.483,234.741h-0.213c-5.891,0-10.667,4.776-10.667,10.667c0,5.891,4.776,10.667,10.667,10.667
		c5.891,0,10.667-4.776,10.667-10.667c0-5.891-4.776-10.667-10.667-10.667H309.483z"/>
	<path style="fill:#009688;" d="M352.149,234.741h-0.213c-5.891,0-10.667,4.776-10.667,10.667c0,5.891,4.776,10.667,10.667,10.667
		s10.667-4.776,10.667-10.667c0-5.891-4.776-10.667-10.667-10.667H352.149z"/>
	<path style="fill:#009688;" d="M394.816,234.741h-0.213c-5.891,0-10.667,4.776-10.667,10.667c0,5.891,4.776,10.667,10.667,10.667
		c5.891,0,10.667-4.776,10.667-10.667c0-5.891-4.776-10.667-10.667-10.667H394.816z"/>
	<path style="fill:#009688;" d="M437.483,234.741h-0.213c-5.891,0-10.667,4.776-10.667,10.667c0,5.891,4.776,10.667,10.667,10.667
		c5.891,0,10.667-4.776,10.667-10.667c0-5.891-4.776-10.667-10.667-10.667H437.483z"/>
	<path style="fill:#009688;" d="M480.149,234.741h-0.213c-5.891,0-10.667,4.776-10.667,10.667c0,5.891,4.776,10.667,10.667,10.667
		c5.891,0,10.667-4.776,10.667-10.667c0-5.891-4.776-10.667-10.667-10.667H480.149z"/>
	<path style="fill:#009688;" d="M266.816,192.075h-0.213c-5.891,0-10.667,4.776-10.667,10.667c0,5.891,4.776,10.667,10.667,10.667
		c5.891,0,10.667-4.776,10.667-10.667c0-5.891-4.776-10.667-10.667-10.667H266.816z"/>
	<path style="fill:#009688;" d="M309.483,192.075h-0.213c-5.891,0-10.667,4.776-10.667,10.667c0,5.891,4.776,10.667,10.667,10.667
		c5.891,0,10.667-4.776,10.667-10.667c0-5.891-4.776-10.667-10.667-10.667H309.483z"/>
	<path style="fill:#009688;" d="M352.149,192.075h-0.213c-5.891,0-10.667,4.776-10.667,10.667c0,5.891,4.776,10.667,10.667,10.667
		s10.667-4.776,10.667-10.667c0-5.891-4.776-10.667-10.667-10.667H352.149z"/>
	<path style="fill:#009688;" d="M394.816,192.075h-0.213c-5.891,0-10.667,4.776-10.667,10.667c0,5.891,4.776,10.667,10.667,10.667
		c5.891,0,10.667-4.776,10.667-10.667c0-5.891-4.776-10.667-10.667-10.667H394.816z"/>
	<path style="fill:#009688;" d="M437.483,192.075h-0.213c-5.891,0-10.667,4.776-10.667,10.667c0,5.891,4.776,10.667,10.667,10.667
		c5.891,0,10.667-4.776,10.667-10.667c0-5.891-4.776-10.667-10.667-10.667H437.483z"/>
	<path style="fill:#009688;" d="M480.149,213.408c5.891,0,10.667-4.776,10.667-10.667c0-5.891-4.776-10.667-10.667-10.667h-0.213
		c-5.891,0-10.667,4.776-10.667,10.667c-0.001,5.891,4.773,10.668,10.665,10.669C480.006,213.41,480.078,213.409,480.149,213.408z"
		/>
	<path style="fill:#009688;" d="M266.816,277.408h-0.213c-5.891,0-10.667,4.776-10.667,10.667s4.776,10.667,10.667,10.667
		c5.891,0,10.667-4.776,10.667-10.667s-4.776-10.667-10.667-10.667H266.816z"/>
	<path style="fill:#009688;" d="M309.483,277.408h-0.213c-5.891,0-10.667,4.776-10.667,10.667s4.776,10.667,10.667,10.667
		c5.891,0,10.667-4.776,10.667-10.667s-4.776-10.667-10.667-10.667H309.483z"/>
	<path style="fill:#009688;" d="M352.149,277.408h-0.213c-5.891,0-10.667,4.776-10.667,10.667s4.776,10.667,10.667,10.667
		s10.667-4.776,10.667-10.667s-4.776-10.667-10.667-10.667H352.149z"/>
	<path style="fill:#009688;" d="M394.816,277.408h-0.213c-5.891,0-10.667,4.776-10.667,10.667s4.776,10.667,10.667,10.667
		c5.891,0,10.667-4.776,10.667-10.667s-4.776-10.667-10.667-10.667H394.816z"/>
	<path style="fill:#009688;" d="M437.483,277.408h-0.213c-5.891,0-10.667,4.776-10.667,10.667s4.776,10.667,10.667,10.667
		c5.891,0,10.667-4.776,10.667-10.667s-4.776-10.667-10.667-10.667H437.483z"/>
	<path style="fill:#009688;" d="M480.149,277.408h-0.213c-5.891,0-10.667,4.776-10.667,10.667s4.776,10.667,10.667,10.667
		c5.891,0,10.667-4.776,10.667-10.667s-4.776-10.667-10.667-10.667H480.149z"/>
</g>
<g>
</g>
<g>
</g>
<g>
</g>
<g>
</g>
<g>
</g>
<g>
</g>
<g>
</g>
<g>
</g>
<g>
</g>
<g>
</g>
<g>
</g>
<g>
</g>
<g>
</g>
<g>
</g>
<g>
</g>
</svg>
