<?xml version="1.0" encoding="iso-8859-1"?>
<!-- Generator: Adobe Illustrator 19.0.0, SVG Export Plug-In . SVG Version: 6.00 Build 0)  -->
<svg version="1.1" id="Capa_1" xmlns="http://www.w3.org/2000/svg" xmlns:xlink="http://www.w3.org/1999/xlink" x="0px" y="0px"
	 viewBox="0 0 511.998 511.998" style="enable-background:new 0 0 511.998 511.998;" xml:space="preserve">
<path style="fill:#2196F3;" d="M501.331,245.18H36.414L210.216,71.399c4.093-4.237,3.975-10.99-0.262-15.083
	c-4.134-3.992-10.687-3.992-14.82,0l-192,192c-4.171,4.16-4.179,10.914-0.019,15.085c0.006,0.006,0.013,0.013,0.019,0.019l192,192
	c4.093,4.237,10.845,4.354,15.083,0.262c4.237-4.093,4.354-10.845,0.262-15.083c-0.086-0.089-0.173-0.176-0.262-0.262
	L36.414,266.513h464.917c5.891,0,10.667-4.776,10.667-10.667S507.222,245.18,501.331,245.18z"/>
<g>
</g>
<g>
</g>
<g>
</g>
<g>
</g>
<g>
</g>
<g>
</g>
<g>
</g>
<g>
</g>
<g>
</g>
<g>
</g>
<g>
</g>
<g>
</g>
<g>
</g>
<g>
</g>
<g>
</g>
</svg>
