<?xml version="1.0" encoding="iso-8859-1"?>
<!-- Generator: Adobe Illustrator 19.0.0, SVG Export Plug-In . SVG Version: 6.00 Build 0)  -->
<svg version="1.1" id="Capa_1" xmlns="http://www.w3.org/2000/svg" xmlns:xlink="http://www.w3.org/1999/xlink" x="0px" y="0px"
	 viewBox="0 0 490.667 490.667" style="enable-background:new 0 0 490.667 490.667;" xml:space="preserve">
<g>
	<path style="fill:#009688;" d="M47.067,245.454L274.203,18.339c4.237-4.093,4.355-10.845,0.262-15.083s-10.845-4.355-15.083-0.262
		c-0.089,0.086-0.176,0.173-0.262,0.262L24.453,237.923c-4.164,4.165-4.164,10.917,0,15.083L259.12,487.672
		c4.237,4.093,10.99,3.975,15.083-0.262c3.993-4.134,3.993-10.687,0-14.821L47.067,245.454z"/>
	<path style="fill:#009688;" d="M466.203,3.235c-4.165-4.164-10.917-4.164-15.083,0L216.453,237.902
		c-4.164,4.165-4.164,10.917,0,15.083L451.12,487.651c4.237,4.093,10.99,3.976,15.083-0.261c3.993-4.134,3.993-10.688,0-14.821
		L239.067,245.454L466.203,18.339c4.171-4.16,4.179-10.914,0.019-15.085C466.216,3.248,466.209,3.241,466.203,3.235z"/>
</g>
<g>
</g>
<g>
</g>
<g>
</g>
<g>
</g>
<g>
</g>
<g>
</g>
<g>
</g>
<g>
</g>
<g>
</g>
<g>
</g>
<g>
</g>
<g>
</g>
<g>
</g>
<g>
</g>
<g>
</g>
</svg>
