<?xml version="1.0" encoding="iso-8859-1"?>
<!-- Generator: Adobe Illustrator 19.0.0, SVG Export Plug-In . SVG Version: 6.00 Build 0)  -->
<svg version="1.1" id="Capa_1" xmlns="http://www.w3.org/2000/svg" xmlns:xlink="http://www.w3.org/1999/xlink" x="0px" y="0px"
	 viewBox="0 0 490.923 490.923" style="enable-background:new 0 0 490.923 490.923;" xml:space="preserve">
<path style="fill:#2196F3;" d="M245.483,0C109.918-0.012,0.012,109.875,0,245.44c-0.012,135.565,109.875,245.471,245.44,245.483
	s245.471-109.875,245.483-245.44c0-0.014,0-0.028,0-0.043C490.77,109.951,380.972,0.153,245.483,0z"/>
<g>
	<path style="fill:#FAFAFA;" d="M224.149,362.773c-2.831,0.005-5.548-1.115-7.552-3.115L109.824,252.864
		c-4.164-4.165-4.164-10.917,0-15.083l106.56-106.56c4.237-4.092,10.99-3.975,15.083,0.262c3.992,4.134,3.992,10.687,0,14.82
		l-99.051,99.029l99.243,99.243c4.159,4.172,4.149,10.926-0.023,15.085C229.647,361.643,226.957,362.762,224.149,362.773z"/>
	<path style="fill:#FAFAFA;" d="M352.149,362.773c-2.831,0.005-5.548-1.115-7.552-3.115L237.824,252.885
		c-4.171-4.16-4.179-10.914-0.019-15.085c0.006-0.006,0.013-0.013,0.019-0.019l106.667-106.432
		c4.243-4.087,10.996-3.96,15.082,0.283c3.987,4.139,3.978,10.693-0.021,14.821l-99.136,98.987l99.221,99.221
		c4.112,4.218,4.027,10.971-0.191,15.084C357.491,361.651,354.88,362.735,352.149,362.773z"/>
</g>
<g>
</g>
<g>
</g>
<g>
</g>
<g>
</g>
<g>
</g>
<g>
</g>
<g>
</g>
<g>
</g>
<g>
</g>
<g>
</g>
<g>
</g>
<g>
</g>
<g>
</g>
<g>
</g>
<g>
</g>
</svg>
