<?xml version="1.0" encoding="iso-8859-1"?>
<!-- Generator: Adobe Illustrator 19.0.0, SVG Export Plug-In . SVG Version: 6.00 Build 0)  -->
<svg version="1.1" id="Capa_1" xmlns="http://www.w3.org/2000/svg" xmlns:xlink="http://www.w3.org/1999/xlink" x="0px" y="0px"
	 viewBox="0 0 512.02 512.02" style="enable-background:new 0 0 512.02 512.02;" xml:space="preserve">
<path style="fill:#2196F3;" d="M511.189,315.875c-0.538-1.301-1.328-2.483-2.325-3.477l-128-128
	c-4.237-4.093-10.99-3.975-15.083,0.262c-3.993,4.134-3.993,10.687,0,14.821l109.803,109.803H266.667
	C131.236,309.13,21.486,199.38,21.333,63.95c0-5.891-4.776-10.667-10.667-10.667S0,58.059,0,63.95
	c0.165,147.208,119.459,266.502,266.667,266.667h208.917L365.803,440.398c-4.237,4.093-4.354,10.846-0.261,15.083
	c4.093,4.237,10.846,4.354,15.083,0.261c0.089-0.086,0.176-0.173,0.261-0.261l128-128c3.056-3.048,3.974-7.638,2.325-11.627
	L511.189,315.875z"/>
<g>
</g>
<g>
</g>
<g>
</g>
<g>
</g>
<g>
</g>
<g>
</g>
<g>
</g>
<g>
</g>
<g>
</g>
<g>
</g>
<g>
</g>
<g>
</g>
<g>
</g>
<g>
</g>
<g>
</g>
</svg>
