<?xml version="1.0" encoding="iso-8859-1"?>
<!-- Generator: Adobe Illustrator 19.0.0, SVG Export Plug-In . SVG Version: 6.00 Build 0)  -->
<svg version="1.1" id="Capa_1" xmlns="http://www.w3.org/2000/svg" xmlns:xlink="http://www.w3.org/1999/xlink" x="0px" y="0px"
	 viewBox="0 0 490.667 490.667" style="enable-background:new 0 0 490.667 490.667;" xml:space="preserve">
<g>
	<path style="fill:#455A64;" d="M245.547,469.333h-0.213c-5.891,0-10.667,4.776-10.667,10.667c0,5.891,4.776,10.667,10.667,10.667
		c5.891,0,10.667-4.776,10.667-10.667c0-5.891-4.776-10.667-10.667-10.667H245.547z"/>
	<path style="fill:#455A64;" d="M245.547,426.667h-0.213c-5.891,0-10.667,4.776-10.667,10.667S239.442,448,245.333,448
		c5.891,0,10.667-4.776,10.667-10.667s-4.776-10.667-10.667-10.667H245.547z"/>
	<path style="fill:#455A64;" d="M245.547,384h-0.213c-5.891,0-10.667,4.776-10.667,10.667c0,5.891,4.776,10.667,10.667,10.667
		c5.891,0,10.667-4.776,10.667-10.667c0-5.891-4.776-10.667-10.667-10.667H245.547z"/>
	<path style="fill:#455A64;" d="M245.547,341.333h-0.213c-5.891,0-10.667,4.776-10.667,10.667c0,5.891,4.776,10.667,10.667,10.667
		c5.891,0,10.667-4.776,10.667-10.667c0-5.891-4.776-10.667-10.667-10.667H245.547z"/>
	<path style="fill:#455A64;" d="M245.547,298.667h-0.213c-5.891,0-10.667,4.776-10.667,10.667S239.442,320,245.333,320
		c5.891,0,10.667-4.776,10.667-10.667s-4.776-10.667-10.667-10.667H245.547z"/>
	<path style="fill:#455A64;" d="M245.547,256h-0.213c-5.891,0-10.667,4.776-10.667,10.667c0,5.891,4.776,10.667,10.667,10.667
		c5.891,0,10.667-4.776,10.667-10.667c0-5.891-4.776-10.667-10.667-10.667H245.547z"/>
	<path style="fill:#455A64;" d="M245.547,213.333h-0.213c-5.891,0-10.667,4.776-10.667,10.667c0,5.891,4.776,10.667,10.667,10.667
		c5.891,0,10.667-4.776,10.667-10.667c0-5.891-4.776-10.667-10.667-10.667H245.547z"/>
	<path style="fill:#455A64;" d="M288.213,426.667H288c-5.891,0-10.667,4.776-10.667,10.667S282.109,448,288,448
		c5.891,0,10.667-4.776,10.667-10.667s-4.776-10.667-10.667-10.667H288.213z"/>
	<path style="fill:#455A64;" d="M288.213,384H288c-5.891,0-10.667,4.776-10.667,10.667c0,5.891,4.776,10.667,10.667,10.667
		c5.891,0,10.667-4.776,10.667-10.667c0-5.891-4.776-10.667-10.667-10.667H288.213z"/>
	<path style="fill:#455A64;" d="M288.213,341.333H288c-5.891,0-10.667,4.776-10.667,10.667c0,5.891,4.776,10.667,10.667,10.667
		c5.891,0,10.667-4.776,10.667-10.667c0-5.891-4.776-10.667-10.667-10.667H288.213z"/>
	<path style="fill:#455A64;" d="M288.213,298.667H288c-5.891,0-10.667,4.776-10.667,10.667S282.109,320,288,320
		c5.891,0,10.667-4.776,10.667-10.667s-4.776-10.667-10.667-10.667H288.213z"/>
	<path style="fill:#455A64;" d="M288.213,256H288c-5.891,0-10.667,4.776-10.667,10.667c0,5.891,4.776,10.667,10.667,10.667
		c5.891,0,10.667-4.776,10.667-10.667c0-5.891-4.776-10.667-10.667-10.667H288.213z"/>
	<path style="fill:#455A64;" d="M330.88,384h-0.213c-5.891,0-10.667,4.776-10.667,10.667c0,5.891,4.776,10.667,10.667,10.667
		c5.891,0,10.667-4.776,10.667-10.667c0-5.891-4.776-10.667-10.667-10.667H330.88z"/>
	<path style="fill:#455A64;" d="M330.88,341.333h-0.213c-5.891,0-10.667,4.776-10.667,10.667c0,5.891,4.776,10.667,10.667,10.667
		c5.891,0,10.667-4.776,10.667-10.667c0-5.891-4.776-10.667-10.667-10.667H330.88z"/>
	<path style="fill:#455A64;" d="M330.88,298.667h-0.213c-5.891,0-10.667,4.776-10.667,10.667S324.776,320,330.667,320
		c5.891,0,10.667-4.776,10.667-10.667s-4.776-10.667-10.667-10.667H330.88z"/>
	<path style="fill:#455A64;" d="M330.88,256h-0.213c-5.891,0-10.667,4.776-10.667,10.667c0,5.891,4.776,10.667,10.667,10.667
		c5.891,0,10.667-4.776,10.667-10.667c0-5.891-4.776-10.667-10.667-10.667H330.88z"/>
	<path style="fill:#455A64;" d="M373.547,341.333h-0.213c-5.891,0-10.667,4.776-10.667,10.667c0,5.891,4.776,10.667,10.667,10.667
		S384,357.891,384,352c0-5.891-4.776-10.667-10.667-10.667H373.547z"/>
	<path style="fill:#455A64;" d="M373.547,298.667h-0.213c-5.891,0-10.667,4.776-10.667,10.667S367.442,320,373.333,320
		S384,315.224,384,309.333s-4.776-10.667-10.667-10.667H373.547z"/>
	<path style="fill:#455A64;" d="M373.547,256h-0.213c-5.891,0-10.667,4.776-10.667,10.667c0,5.891,4.776,10.667,10.667,10.667
		S384,272.558,384,266.667c0-5.891-4.776-10.667-10.667-10.667H373.547z"/>
	<path style="fill:#455A64;" d="M416.213,298.667H416c-5.891,0-10.667,4.776-10.667,10.667S410.109,320,416,320
		c5.891,0,10.667-4.776,10.667-10.667s-4.776-10.667-10.667-10.667H416.213z"/>
	<path style="fill:#455A64;" d="M416.213,256H416c-5.891,0-10.667,4.776-10.667,10.667c0,5.891,4.776,10.667,10.667,10.667
		c5.891,0,10.667-4.776,10.667-10.667c0-5.891-4.776-10.667-10.667-10.667H416.213z"/>
	<path style="fill:#455A64;" d="M458.88,256h-0.213c-5.891,0-10.667,4.776-10.667,10.667c0,5.891,4.776,10.667,10.667,10.667
		c5.891,0,10.667-4.776,10.667-10.667c0-5.891-4.776-10.667-10.667-10.667H458.88z"/>
	<path style="fill:#455A64;" d="M202.88,426.667h-0.213c-5.891,0-10.667,4.776-10.667,10.667S196.776,448,202.667,448
		s10.667-4.776,10.667-10.667s-4.776-10.667-10.667-10.667H202.88z"/>
	<path style="fill:#455A64;" d="M202.88,384h-0.213c-5.891,0-10.667,4.776-10.667,10.667c0,5.891,4.776,10.667,10.667,10.667
		s10.667-4.776,10.667-10.667c0-5.891-4.776-10.667-10.667-10.667H202.88z"/>
	<path style="fill:#455A64;" d="M202.88,341.333h-0.213c-5.891,0-10.667,4.776-10.667,10.667c0,5.891,4.776,10.667,10.667,10.667
		s10.667-4.776,10.667-10.667c0-5.891-4.776-10.667-10.667-10.667H202.88z"/>
	<path style="fill:#455A64;" d="M202.88,298.667h-0.213c-5.891,0-10.667,4.776-10.667,10.667S196.776,320,202.667,320
		s10.667-4.776,10.667-10.667s-4.776-10.667-10.667-10.667H202.88z"/>
	<path style="fill:#455A64;" d="M202.88,256h-0.213c-5.891,0-10.667,4.776-10.667,10.667c0,5.891,4.776,10.667,10.667,10.667
		s10.667-4.776,10.667-10.667c0-5.891-4.776-10.667-10.667-10.667H202.88z"/>
	<path style="fill:#455A64;" d="M160.213,384H160c-5.891,0-10.667,4.776-10.667,10.667c0,5.891,4.776,10.667,10.667,10.667
		s10.667-4.776,10.667-10.667c0-5.891-4.776-10.667-10.667-10.667H160.213z"/>
	<path style="fill:#455A64;" d="M160.213,341.333H160c-5.891,0-10.667,4.776-10.667,10.667c0,5.891,4.776,10.667,10.667,10.667
		s10.667-4.776,10.667-10.667c0-5.891-4.776-10.667-10.667-10.667H160.213z"/>
	<path style="fill:#455A64;" d="M160.213,298.667H160c-5.891,0-10.667,4.776-10.667,10.667S154.109,320,160,320
		s10.667-4.776,10.667-10.667s-4.776-10.667-10.667-10.667H160.213z"/>
	<path style="fill:#455A64;" d="M160.213,256H160c-5.891,0-10.667,4.776-10.667,10.667c0,5.891,4.776,10.667,10.667,10.667
		s10.667-4.776,10.667-10.667c0-5.891-4.776-10.667-10.667-10.667H160.213z"/>
	<path style="fill:#455A64;" d="M117.547,341.333h-0.213c-5.891,0-10.667,4.776-10.667,10.667c0,5.891,4.776,10.667,10.667,10.667
		c5.891,0,10.667-4.776,10.667-10.667c0-5.891-4.776-10.667-10.667-10.667H117.547z"/>
	<path style="fill:#455A64;" d="M117.547,298.667h-0.213c-5.891,0-10.667,4.776-10.667,10.667S111.442,320,117.333,320
		c5.891,0,10.667-4.776,10.667-10.667s-4.776-10.667-10.667-10.667H117.547z"/>
	<path style="fill:#455A64;" d="M117.547,256h-0.213c-5.891,0-10.667,4.776-10.667,10.667c0,5.891,4.776,10.667,10.667,10.667
		c5.891,0,10.667-4.776,10.667-10.667c0-5.891-4.776-10.667-10.667-10.667H117.547z"/>
	<path style="fill:#455A64;" d="M74.88,298.667h-0.213c-5.891,0-10.667,4.776-10.667,10.667S68.776,320,74.667,320
		s10.667-4.776,10.667-10.667s-4.776-10.667-10.667-10.667H74.88z"/>
	<path style="fill:#455A64;" d="M74.88,256h-0.213C68.776,256,64,260.776,64,266.667c0,5.891,4.776,10.667,10.667,10.667
		s10.667-4.776,10.667-10.667c0-5.891-4.776-10.667-10.667-10.667H74.88z"/>
	<path style="fill:#455A64;" d="M32.213,256H32c-5.891,0-10.667,4.776-10.667,10.667c0,5.891,4.776,10.667,10.667,10.667
		s10.667-4.776,10.667-10.667C42.667,260.776,37.891,256,32,256H32.213z"/>
	<path style="fill:#455A64;" d="M245.547,170.667h-0.213c-5.891,0-10.667,4.776-10.667,10.667c0,5.891,4.776,10.667,10.667,10.667
		c5.891,0,10.667-4.776,10.667-10.667c0-5.891-4.776-10.667-10.667-10.667H245.547z"/>
	<path style="fill:#455A64;" d="M245.547,128h-0.213c-5.891,0-10.667,4.776-10.667,10.667s4.776,10.667,10.667,10.667
		c5.891,0,10.667-4.776,10.667-10.667S251.224,128,245.333,128H245.547z"/>
	<path style="fill:#455A64;" d="M245.547,85.333h-0.213c-5.891,0-10.667,4.776-10.667,10.667c0,5.891,4.776,10.667,10.667,10.667
		c5.891,0,10.667-4.776,10.667-10.667c0-5.891-4.776-10.667-10.667-10.667H245.547z"/>
	<path style="fill:#455A64;" d="M245.547,42.667h-0.213c-5.891,0-10.667,4.776-10.667,10.667S239.442,64,245.333,64
		C251.224,64,256,59.224,256,53.333s-4.776-10.667-10.667-10.667H245.547z"/>
	<path style="fill:#455A64;" d="M245.547,0h-0.213c-5.891,0-10.667,4.776-10.667,10.667c0.001,5.891,4.778,10.666,10.669,10.665
		c5.891-0.001,10.666-4.778,10.665-10.669C255.999,4.855,251.353,0.116,245.547,0z"/>
	<path style="fill:#455A64;" d="M202.88,213.333h-0.213c-5.891,0-10.667,4.776-10.667,10.667c0,5.891,4.776,10.667,10.667,10.667
		s10.667-4.776,10.667-10.667c0-5.891-4.776-10.667-10.667-10.667H202.88z"/>
	<path style="fill:#455A64;" d="M202.88,170.667h-0.213c-5.891,0-10.667,4.776-10.667,10.667c0,5.891,4.776,10.667,10.667,10.667
		s10.667-4.776,10.667-10.667c0-5.891-4.776-10.667-10.667-10.667H202.88z"/>
	<path style="fill:#455A64;" d="M202.88,128h-0.213c-5.891,0-10.667,4.776-10.667,10.667s4.776,10.667,10.667,10.667
		s10.667-4.776,10.667-10.667S208.558,128,202.667,128H202.88z"/>
	<path style="fill:#455A64;" d="M202.88,85.333h-0.213C196.776,85.333,192,90.109,192,96c0,5.891,4.776,10.667,10.667,10.667
		s10.667-4.776,10.667-10.667c0-5.891-4.776-10.667-10.667-10.667H202.88z"/>
	<path style="fill:#455A64;" d="M202.88,42.667h-0.213c-5.891,0-10.667,4.776-10.667,10.667S196.776,64,202.667,64
		s10.667-4.776,10.667-10.667s-4.776-10.667-10.667-10.667H202.88z"/>
	<path style="fill:#455A64;" d="M202.88,0h-0.213C196.776,0,192,4.776,192,10.667c0.001,5.891,4.778,10.666,10.669,10.665
		c5.891-0.001,10.666-4.778,10.665-10.669C213.332,4.855,208.686,0.116,202.88,0z"/>
	<path style="fill:#455A64;" d="M288.213,213.333H288c-5.891,0-10.667,4.776-10.667,10.667c0,5.891,4.776,10.667,10.667,10.667
		c5.891,0,10.667-4.776,10.667-10.667c0-5.891-4.776-10.667-10.667-10.667H288.213z"/>
	<path style="fill:#455A64;" d="M288.213,170.667H288c-5.891,0-10.667,4.776-10.667,10.667c0,5.891,4.776,10.667,10.667,10.667
		c5.891,0,10.667-4.776,10.667-10.667c0-5.891-4.776-10.667-10.667-10.667H288.213z"/>
	<path style="fill:#455A64;" d="M288.213,128H288c-5.891,0-10.667,4.776-10.667,10.667s4.776,10.667,10.667,10.667
		c5.891,0,10.667-4.776,10.667-10.667S293.891,128,288,128H288.213z"/>
	<path style="fill:#455A64;" d="M288.213,85.333H288c-5.891,0-10.667,4.776-10.667,10.667c0,5.891,4.776,10.667,10.667,10.667
		c5.891,0,10.667-4.776,10.667-10.667c0-5.891-4.776-10.667-10.667-10.667H288.213z"/>
	<path style="fill:#455A64;" d="M288.213,42.667H288c-5.891,0-10.667,4.776-10.667,10.667S282.109,64,288,64
		c5.891,0,10.667-4.776,10.667-10.667S293.891,42.667,288,42.667H288.213z"/>
	<path style="fill:#455A64;" d="M288.213,0H288c-5.891,0-10.667,4.776-10.667,10.667c0.001,5.891,4.778,10.666,10.669,10.665
		c5.891-0.001,10.666-4.778,10.665-10.669C298.666,4.855,294.019,0.116,288.213,0z"/>
</g>
<g>
</g>
<g>
</g>
<g>
</g>
<g>
</g>
<g>
</g>
<g>
</g>
<g>
</g>
<g>
</g>
<g>
</g>
<g>
</g>
<g>
</g>
<g>
</g>
<g>
</g>
<g>
</g>
<g>
</g>
</svg>
